<svg width="348" height="332" viewBox="0 0 348 332" fill="none" xmlns="http://www.w3.org/2000/svg">
<path d="M139.399 282.95C84.4471 256.374 69.2367 190.087 103.309 139.273C150.317 69.1627 213.307 82.1552 258.352 6.6441C260.488 3.06322 265.97 3.07655 267.656 6.70863C303.927 84.8396 332.856 162.222 285.526 239.941C255.814 288.728 190.704 307.762 139.399 282.95Z" fill="#69B565"/>
<path d="M241.227 141.695C241.789 139.203 238.137 138.146 236.878 140.427C227.828 156.82 217.718 172.204 205.877 186.229C191.115 203.914 173.742 219.317 154.502 232.356C135.258 245.407 114.198 256.131 91.9985 264.878C82.3476 268.712 72.4953 272.142 62.4557 275.309C56.1707 277.291 57.9414 285.971 64.4666 285.127C75.2707 283.731 86.0428 281.579 96.6658 278.734C121.086 272.135 144.794 261.644 165.848 247.311C186.907 233.037 205.236 214.883 218.675 194.216C229.372 177.795 237.118 159.931 241.227 141.695Z" fill="#009455"/>
</svg>
