<svg width="586" height="722" viewBox="0 0 586 722" fill="none" xmlns="http://www.w3.org/2000/svg">
<path d="M241.632 529.005C247.867 587.624 303.161 623.071 360.465 608.672C439.527 588.809 448.262 527.313 531.594 510.995C535.546 510.221 537.322 505.234 534.57 502.516C475.378 444.063 414.472 392.527 328.388 410.202C274.349 421.297 235.811 474.275 241.632 529.005Z" fill="#69B565"/>
<path d="M403.246 482.514C405.694 482.816 405.464 486.48 402.98 486.88C385.127 489.76 367.846 493.933 351.234 500.122C330.344 507.772 310.676 518.541 292.548 531.778C274.408 545.013 257.791 560.659 242.599 577.986C235.966 585.508 229.635 593.346 223.482 601.439C219.63 606.505 212.317 602.065 215.213 596.409C220.005 587.043 225.475 577.953 231.526 569.224C245.489 549.178 262.759 531.05 282.655 516.586C302.498 502.099 324.978 491.358 348.149 485.883C366.564 481.515 385.329 480.301 403.246 482.514Z" fill="#009455"/>
<path d="M418.848 299.687C385.669 268.299 390.938 218.968 428.015 192.02C479.168 154.838 521.486 178.768 572.547 137.395C574.968 135.433 578.925 136.745 579.252 139.651C586.292 202.156 588.212 262.4 534.959 304.752C501.53 331.339 449.826 328.992 418.848 299.687Z" fill="#69B565"/>
<path d="M527.053 226.467C528.07 224.882 525.691 223.285 524.223 224.559C513.664 233.714 502.587 241.921 490.594 248.78C475.592 257.469 459.264 263.963 442.167 268.383C425.065 272.811 407.221 275.203 389.039 275.959C381.126 276.31 373.168 276.334 365.139 276.132C360.112 276.006 359.262 282.413 364.183 283.381C372.331 284.986 380.64 286.062 389.012 286.625C408.272 287.877 427.971 286.275 446.697 281.394C465.41 276.554 483.103 268.39 497.881 257.33C509.636 248.547 519.612 238.067 527.053 226.467Z" fill="#009455"/>
<path d="M258.169 319.107C247.411 368.824 196.234 395.601 147.866 379.636C81.1311 357.611 79.1734 304.479 8.41333 285.212C5.05789 284.299 3.97357 279.921 6.60736 277.774C63.2647 231.576 120.777 191.402 193.799 212.004C239.638 224.938 268.214 272.688 258.169 319.107Z" fill="#69B565"/>
<path d="M122.293 269.05C120.143 269.152 120.008 272.3 122.125 272.8C137.341 276.401 151.943 281.071 165.78 287.422C183.194 295.295 199.263 305.756 213.771 318.229C228.29 330.702 241.269 345.138 252.858 360.921C257.922 367.775 262.695 374.879 267.292 382.19C270.169 386.768 276.914 383.438 274.92 378.417C271.62 370.105 267.708 361.984 263.259 354.136C252.983 336.108 239.665 319.507 223.736 305.872C207.854 292.221 189.345 281.605 169.755 275.446C154.188 270.537 138.029 268.302 122.293 269.05Z" fill="#009455"/>
<path d="M369.481 62.9535C353.876 37.5963 319.261 31.0321 294.34 47.2738C259.957 69.6817 268.863 98.8831 231.634 120.42C229.868 121.441 230.069 123.991 231.996 124.747C273.445 141.017 314.25 153.877 352.534 131.261C376.566 117.063 384.05 86.6281 369.481 62.9535Z" fill="#69B565"/>
<path d="M300.459 111.412C299.198 111.692 298.526 110.002 299.654 109.399C307.762 105.062 315.313 100.24 322.105 94.6238C330.676 87.6206 337.981 79.4202 344.004 70.3695C350.034 61.3173 354.803 51.4379 358.516 41.0435C360.146 36.5245 361.561 31.915 362.834 27.2203C363.631 24.2814 368.156 25.0381 367.953 28.08C367.617 33.1166 366.891 38.1441 365.804 43.1077C363.274 54.5184 358.718 65.6276 352.094 75.5324C345.5 85.4386 336.814 94.1049 326.664 100.516C318.6 105.619 309.689 109.36 300.459 111.412Z" fill="#009455"/>
</svg>
