<svg width="186" height="73" viewBox="0 0 186 73" fill="none" xmlns="http://www.w3.org/2000/svg">
<path d="M138.423 57.2213C138.423 56.2486 138.632 55.4513 139.041 54.8055C139.45 54.1597 140.068 53.8408 140.878 53.8408C141.688 53.8408 142.305 54.1597 142.722 54.8055C143.139 55.4513 143.348 56.2566 143.348 57.2213V57.4127C143.348 58.3933 143.139 59.1986 142.722 59.8364C142.305 60.4743 141.696 60.7932 140.894 60.7932C140.092 60.7932 139.458 60.4743 139.041 59.8364C138.624 59.1986 138.415 58.3933 138.415 57.4127V57.2213H138.423ZM137.854 53.8408C137.108 54.7258 136.739 55.85 136.739 57.2213V57.4127C136.739 58.784 137.108 59.9082 137.854 60.7932C138.6 61.6782 139.619 62.1087 140.902 62.1087C142.185 62.1087 143.188 61.6702 143.933 60.7932C144.679 59.9162 145.048 58.792 145.048 57.4127V57.2213C145.048 55.85 144.671 54.7178 143.925 53.8408C143.18 52.9558 142.161 52.5173 140.878 52.5173C139.594 52.5173 138.592 52.9638 137.846 53.8488M123.618 57.2213C123.618 56.2486 123.826 55.4513 124.235 54.8055C124.645 54.1597 125.262 53.8408 126.072 53.8408C126.882 53.8408 127.5 54.1597 127.917 54.8055C128.334 55.4513 128.542 56.2566 128.542 57.2213V57.4127C128.542 58.3933 128.334 59.1986 127.917 59.8364C127.5 60.4743 126.89 60.7932 126.088 60.7932C125.286 60.7932 124.653 60.4743 124.235 59.8364C123.818 59.1986 123.61 58.3933 123.61 57.4127V57.2213H123.618ZM123.04 53.8408C122.295 54.7258 121.926 55.85 121.926 57.2213V57.4127C121.926 58.784 122.295 59.9082 123.04 60.7932C123.786 61.6702 124.805 62.1087 126.088 62.1087C127.371 62.1087 128.374 61.6702 129.12 60.7932C129.866 59.9162 130.235 58.792 130.235 57.4127V57.2213C130.235 55.85 129.858 54.7178 129.112 53.8408C128.366 52.9558 127.347 52.5173 126.064 52.5173C124.781 52.5173 123.778 52.9638 123.032 53.8488M120.827 33.0235V39.6251L119.431 39.8643V40.9406H123.923V39.8643L122.519 39.6251V34.3231C122.688 33.9484 122.92 33.6534 123.225 33.4461C123.53 33.2388 123.907 33.1352 124.348 33.1352L125.31 33.183L125.535 31.6203C125.463 31.5964 125.35 31.5804 125.214 31.5565C125.078 31.5406 124.941 31.5246 124.805 31.5246C124.308 31.5246 123.867 31.6602 123.482 31.9233C123.097 32.1943 122.768 32.5611 122.503 33.0315L122.343 31.6921H119.431V32.7764L120.827 33.0156V33.0235ZM113.56 52.6847H110.649V53.7691L112.053 54.0082V60.6098L110.649 60.849V61.9253H115.14V60.849L113.737 60.6098V55.1882C113.961 54.7816 114.258 54.4627 114.635 54.2315C115.012 54.0003 115.445 53.8807 115.926 53.8807C116.592 53.8807 117.089 54.0481 117.41 54.3909C117.731 54.7338 117.891 55.3078 117.891 56.1211V60.6018L116.488 60.841V61.9174H120.979V60.841L119.576 60.6018V56.0892C119.576 54.8693 119.303 53.9684 118.75 53.3864C118.196 52.8043 117.426 52.5093 116.424 52.5093C115.83 52.5093 115.301 52.6449 114.828 52.916C114.362 53.187 113.977 53.5697 113.665 54.0561L113.544 52.6847H113.56ZM111.956 35.3596C112.045 34.642 112.293 34.0441 112.694 33.5737C113.095 33.0953 113.576 32.8641 114.146 32.8641C114.844 32.8641 115.373 33.0873 115.726 33.5258C116.079 33.9723 116.255 34.5224 116.255 35.1842V35.4074H111.972L111.956 35.3676V35.3596ZM111.355 32.8402C110.569 33.7172 110.176 34.8095 110.176 36.125V36.4997C110.176 37.8631 110.561 38.9793 111.323 39.8324C112.085 40.6855 113.119 41.116 114.411 41.116C115.181 41.116 115.838 41.0044 116.384 40.7892C116.929 40.5659 117.37 40.3028 117.699 39.9839L117.033 38.8916C116.72 39.1786 116.343 39.4019 115.91 39.5613C115.477 39.7208 114.972 39.8085 114.403 39.8085C113.617 39.8085 113.007 39.5215 112.574 38.9474C112.141 38.3734 111.916 37.6478 111.9 36.7549L111.924 36.715H117.956V35.6626C117.956 34.4108 117.635 33.4062 116.985 32.6568C116.343 31.9073 115.397 31.5326 114.146 31.5326C113.071 31.5326 112.133 31.9711 111.347 32.8402M91.0152 53.8328C90.3014 54.7099 89.9405 55.8101 89.9405 57.1257V57.4844C89.9405 58.8079 90.2934 59.9082 91.0072 60.7852C91.721 61.6622 92.7556 62.1007 94.103 62.1007C95.0895 62.1007 95.9477 61.7898 96.6936 61.1759C97.4395 60.554 97.7924 59.8524 97.7603 59.0551L97.7443 59.0073H96.2204C96.2204 59.5096 96.0038 59.9321 95.5788 60.275C95.1537 60.6178 94.6564 60.7932 94.095 60.7932C93.2047 60.7932 92.5631 60.4823 92.1862 59.8524C91.8092 59.2225 91.6167 58.4332 91.6167 57.4924V57.1336C91.6167 56.2088 91.8092 55.4354 92.1862 54.7976C92.5631 54.1597 93.2047 53.8488 94.087 53.8488C94.48 53.8488 94.8409 53.9126 95.1537 54.0322C95.4665 54.1518 95.7231 54.3112 95.9236 54.5026L96.2926 55.9536H97.64L97.5598 53.9046C97.1668 53.4741 96.6776 53.1392 96.0841 52.9C95.4905 52.6528 94.8249 52.5333 94.079 52.5333C92.7315 52.5333 91.7049 52.9718 90.9831 53.8488M98.3297 31.7H95.2339V32.7843L96.6375 33.0235V39.6251L95.2339 39.8643V40.9406H99.7253V39.8643L98.3217 39.6251V31.7H98.3297ZM96.6375 29.34H98.3297V27.6259H96.6375V29.34ZM82.3372 56.3443C82.4334 55.6267 82.674 55.0288 83.075 54.5504C83.4761 54.072 83.9573 53.8408 84.5267 53.8408C85.2245 53.8408 85.7538 54.0641 86.1067 54.5105C86.4596 54.957 86.6441 55.5071 86.6441 56.1689V56.3921H82.3532L82.3372 56.3523V56.3443ZM81.7356 53.8249C80.9496 54.7019 80.5566 55.7942 80.5566 57.1097V57.4844C80.5566 58.8478 80.9416 59.964 81.7036 60.8171C82.4655 61.6782 83.5001 62.1007 84.7914 62.1007C85.5613 62.1007 86.219 61.9891 86.7644 61.7739C87.3098 61.5586 87.7509 61.2875 88.0797 60.9686L87.4221 59.8763C87.1093 60.1633 86.7323 60.3866 86.2992 60.546C85.8661 60.7055 85.3689 60.7932 84.7914 60.7932C84.0054 60.7932 83.3959 60.5062 82.9628 59.9321C82.5297 59.3581 82.3051 58.6325 82.281 57.7396L82.3051 57.6997H88.3364V56.6473C88.3364 55.3955 88.0156 54.3909 87.3739 53.6415C86.7323 52.892 85.7859 52.5173 84.5347 52.5173C83.46 52.5173 82.5216 52.9558 81.7356 53.8249ZM81.1582 49.4956H70.7638V52.2462H72.2155L72.3358 50.8191H75.1189V60.6098L73.7153 60.849V61.9253H78.2067V60.849L76.8031 60.6098V50.8191H79.5782L79.7065 52.2462H81.1502V49.4956H81.1582ZM72.1593 28.5109H70.7558V29.5952L72.1593 29.8344V36.9382C72.1593 38.2857 72.5844 39.3221 73.4426 40.0397C74.2928 40.7573 75.4156 41.116 76.7951 41.116C78.1746 41.116 79.3696 40.7573 80.2519 40.0397C81.1341 39.3221 81.5752 38.2857 81.5752 36.9382V29.8344L82.9788 29.5952V28.5109H78.4874V29.5952L79.891 29.8344V36.9382C79.891 37.887 79.6102 38.5966 79.0408 39.0829C78.4714 39.5693 77.7255 39.8085 76.8031 39.8085C75.8808 39.8085 75.2151 39.5613 74.6697 39.0829C74.1323 38.5966 73.8597 37.887 73.8597 36.9462V29.8423L75.2632 29.6032V28.5188H72.1674L72.1593 28.5109ZM78.3831 19.5971C79.105 19.2384 79.6423 18.8238 80.0032 18.3613V16.1528H78.8082L78.4874 17.9069C78.2388 18.162 77.8778 18.3773 77.4127 18.5527C76.9475 18.7281 76.4342 18.8158 75.8647 18.8158C74.6537 18.8158 73.6992 18.3454 73.0175 17.4046C72.3358 16.4638 71.9909 15.2758 71.9909 13.8327V13.6334C71.9909 12.1903 72.3438 11.0023 73.0416 10.0695C73.7393 9.13668 74.7419 8.66628 76.0412 8.66628C76.5946 8.66628 77.0758 8.75398 77.4768 8.92141C77.8778 9.08884 78.2147 9.31208 78.4874 9.57519L78.8082 11.3372H80.0032V9.12871C79.6423 8.67425 79.105 8.25966 78.3831 7.8929C77.6613 7.52615 76.8272 7.34277 75.8728 7.34277C74.2125 7.34277 72.8732 7.94074 71.8465 9.12871C70.8199 10.3246 70.3066 11.8315 70.3066 13.6493V13.8327C70.3066 15.6426 70.828 17.1415 71.8706 18.3374C72.9133 19.5334 74.2446 20.1313 75.8728 20.1313C76.8272 20.1313 77.6613 19.948 78.3831 19.5892M89.8442 11.9272L90.6783 11.7996V10.7153H86.9328V11.7996L87.9915 11.9671L86.0586 17.7076H86.0105L85.6977 16.5276L84.0936 11.9671L85.1443 11.7996V10.7153H81.3908V11.7996L82.2409 11.9352L85.3047 19.7725L84.9037 20.7293C84.7353 21.1359 84.5428 21.4867 84.3182 21.7977C84.0936 22.1086 83.8049 22.2601 83.444 22.2601C83.3798 22.2601 83.2274 22.2521 82.9948 22.2362C82.7542 22.2202 82.658 22.2123 82.6901 22.2202L82.5216 23.5437C82.6339 23.5756 82.8023 23.5995 83.0109 23.6314C83.2194 23.6633 83.3959 23.6793 83.5242 23.6793C84.2701 23.6793 84.8636 23.4481 85.3047 22.9856C85.7458 22.5232 86.0827 21.981 86.3153 21.3592L89.8522 11.9192L89.8442 11.9272ZM92.4508 35.1124C92.4508 33.8926 92.1781 32.9916 91.6247 32.4096C91.0713 31.8276 90.3014 31.5326 89.2988 31.5326C88.7053 31.5326 88.176 31.6681 87.7028 31.9392C87.2376 32.2103 86.8526 32.593 86.5398 33.0793L86.4195 31.708H83.5081V32.7923L84.9117 33.0315V39.6331L83.5081 39.8723V40.9486H87.9995V39.8723L86.596 39.6331V34.2115C86.8205 33.8049 87.1173 33.486 87.4942 33.2547C87.8712 33.0235 88.3043 32.9039 88.7855 32.9039C89.4512 32.9039 89.9485 33.0714 90.2693 33.4142C90.5901 33.757 90.7505 34.3311 90.7505 35.1523V39.6331L89.347 39.8723V40.9486H93.8384V39.8723L92.4348 39.6331V35.1204L92.4508 35.1124ZM99.5408 15.6904C99.5408 16.6153 99.3323 17.3727 98.9233 17.9547C98.5142 18.5367 97.9047 18.8238 97.1026 18.8238C96.6054 18.8238 96.1803 18.7201 95.8434 18.5128C95.5066 18.3055 95.2259 18.0105 95.0173 17.6278V13.1311C95.2259 12.7564 95.5066 12.4614 95.8515 12.2461C96.1963 12.0308 96.6054 11.9192 97.0866 11.9192C97.8967 11.9192 98.5142 12.2541 98.9233 12.9238C99.3323 13.5935 99.5408 14.4546 99.5408 15.507V15.6904ZM100.287 18.9115C100.928 18.0982 101.249 17.0219 101.249 15.6904V15.507C101.249 14.0161 100.928 12.8202 100.295 11.9113C99.6531 11.0023 98.7628 10.5479 97.6079 10.5479C97.0224 10.5479 96.5091 10.6595 96.068 10.8827C95.6269 11.106 95.2499 11.4249 94.9371 11.8475L94.7848 10.7233H91.9375V11.8076L93.3331 12.0468V22.1883L91.9375 22.4275V23.5118H96.4289V22.4275L95.0254 22.1883V18.9992C95.3301 19.3739 95.6991 19.6609 96.1322 19.8523C96.5653 20.0436 97.0706 20.1393 97.64 20.1393C98.7709 20.1393 99.6531 19.7327 100.295 18.9115M108.355 12.2063L108.58 10.6436C108.508 10.6196 108.395 10.5957 108.259 10.5798C108.123 10.5559 107.986 10.5479 107.85 10.5479C107.353 10.5479 106.912 10.6834 106.527 10.9465C106.142 11.2176 105.813 11.5844 105.548 12.0548L105.388 10.7153H102.476V11.7996L103.88 12.0388V18.6404L102.476 18.8796V19.9559H106.968V18.8796L105.564 18.6404V13.3384C105.733 12.9637 105.965 12.6687 106.27 12.4614C106.575 12.2541 106.944 12.1504 107.393 12.1504L108.355 12.1983V12.2063ZM108.564 32.9119L109.326 32.7843V31.7H105.733V32.7843L106.855 32.9518L105.003 38.2139L104.842 38.8836H104.794L104.642 38.2139L102.725 32.9518L103.84 32.7843V31.7H100.247V32.7843L101.009 32.9119L104.161 40.9406H105.444L108.564 32.9119ZM104.89 61.9253H109.382V60.849L107.978 60.6098V56.137C107.978 54.9092 107.706 54.0003 107.152 53.4023C106.607 52.8123 105.829 52.5173 104.834 52.5173C104.265 52.5173 103.752 52.6369 103.286 52.8841C102.821 53.1312 102.428 53.4741 102.107 53.9205V48.6106H99.0195V49.6949L100.423 49.9341V60.6178L99.0195 60.857V61.9333H103.511V60.857L102.107 60.6178V55.1085C102.356 54.7338 102.669 54.4388 103.046 54.2155C103.423 54.0003 103.848 53.8886 104.313 53.8886C104.963 53.8886 105.46 54.072 105.789 54.4308C106.118 54.7976 106.286 55.3557 106.286 56.1211V60.6098L104.882 60.849V61.9253H104.89ZM116.865 19.9559H119.447V18.8796L118.381 18.6404V10.7153H115.445V11.7996L116.688 12.0388V17.3727C116.488 17.8192 116.191 18.162 115.798 18.4012C115.405 18.6404 114.908 18.768 114.306 18.768C113.705 18.768 113.232 18.5846 112.943 18.2099C112.654 17.8431 112.51 17.1654 112.51 16.1768V10.7153H109.751V11.7996L110.817 12.0388V16.1608C110.817 17.5242 111.098 18.5208 111.668 19.1666C112.237 19.8124 113.023 20.1313 114.034 20.1313C114.635 20.1313 115.164 19.9958 115.63 19.7327C116.087 19.4616 116.464 19.0869 116.761 18.5846L116.873 19.948L116.865 19.9559ZM123.04 14.0719C122.784 13.8566 122.655 13.5776 122.655 13.2108C122.655 12.8441 122.8 12.5252 123.097 12.2621C123.385 11.999 123.834 11.8714 124.436 11.8714C124.829 11.8714 125.182 11.9272 125.495 12.0468C125.807 12.1664 126.064 12.3179 126.273 12.5092L126.545 13.6175H127.821L127.732 11.5764C127.363 11.2495 126.89 11.0023 126.329 10.819C125.767 10.6356 125.134 10.5479 124.428 10.5479C123.401 10.5479 122.559 10.811 121.918 11.3452C121.276 11.8714 120.955 12.5172 120.955 13.2666C120.955 14.0161 121.244 14.5503 121.813 14.9729C122.383 15.3954 123.233 15.7303 124.364 15.9695C125.158 16.1449 125.687 16.3522 125.976 16.5914C126.257 16.8305 126.401 17.1335 126.401 17.5082C126.401 17.8989 126.233 18.2178 125.888 18.457C125.551 18.6962 125.078 18.8238 124.476 18.8238C124.123 18.8238 123.786 18.7839 123.449 18.7042C123.113 18.6244 122.848 18.4969 122.655 18.3215L122.335 17.0857H121.059V19.1905C121.509 19.5015 122.014 19.7327 122.575 19.8921C123.137 20.0516 123.77 20.1393 124.476 20.1393C125.551 20.1393 126.425 19.8842 127.091 19.3819C127.756 18.8716 128.093 18.2099 128.093 17.3966C128.093 16.6711 127.805 16.097 127.235 15.6665C126.666 15.236 125.791 14.8931 124.612 14.646C123.826 14.4785 123.297 14.2952 123.04 14.0799M128.927 35.0566C128.671 34.8493 128.542 34.5623 128.542 34.1956C128.542 33.8288 128.687 33.5099 128.976 33.2468C129.264 32.9837 129.713 32.8561 130.315 32.8561C130.708 32.8561 131.061 32.9119 131.374 33.0315C131.686 33.1511 131.943 33.3026 132.152 33.4939L132.424 34.6022H133.691L133.603 32.5611C133.234 32.2342 132.761 31.9871 132.2 31.8037C131.638 31.6203 131.005 31.5326 130.299 31.5326C129.272 31.5326 128.43 31.7957 127.789 32.3299C127.147 32.8641 126.826 33.5019 126.826 34.2514C126.826 35.0008 127.115 35.535 127.684 35.9576C128.254 36.3801 129.112 36.707 130.235 36.9542C131.029 37.1296 131.558 37.3369 131.847 37.5761C132.128 37.8153 132.272 38.1182 132.272 38.493C132.272 38.8836 132.103 39.2025 131.759 39.4497C131.422 39.6889 130.949 39.8085 130.347 39.8085C130.002 39.8085 129.657 39.7686 129.32 39.6889C128.984 39.6092 128.719 39.4816 128.526 39.3062L128.206 38.0704H126.93V40.1752C127.379 40.4862 127.877 40.7174 128.438 40.8769C129 41.0363 129.633 41.124 130.339 41.124C131.414 41.124 132.288 40.8689 132.954 40.3666C133.619 39.8563 133.956 39.1946 133.956 38.3813C133.956 37.6558 133.667 37.0817 133.098 36.6512C132.529 36.2207 131.654 35.8778 130.475 35.6307C129.689 35.4632 129.16 35.2799 128.903 35.0646M135.737 60.849L134.333 60.6098V48.6026H131.237V49.6869L132.641 49.9261V60.6098L131.237 60.849V61.9253H135.729V60.849H135.737ZM136.795 29.34H138.488V27.6259H136.795V29.34ZM135.392 40.9406H139.883V39.8643L138.48 39.6251V31.7H135.384V32.7843L136.787 33.0235V39.6251L135.384 39.8643V40.9406H135.392ZM145.153 41.0204C145.457 40.9566 145.698 40.8689 145.858 40.7652L145.626 39.6092C145.497 39.6411 145.345 39.665 145.161 39.6889C144.976 39.7128 144.808 39.7288 144.655 39.7288C144.359 39.7288 144.118 39.6411 143.941 39.4656C143.757 39.2902 143.669 38.9873 143.669 38.5488V32.9358H145.433V31.6921H143.669V29.4676H141.977V31.6921H140.509V32.9358H141.977V38.5488C141.977 39.4338 142.177 40.0796 142.586 40.4942C142.995 40.9087 143.54 41.116 144.23 41.116C144.543 41.116 144.848 41.0841 145.161 41.0204M148.329 57.4765C148.329 56.424 148.529 55.563 148.93 54.8853C149.331 54.2155 149.933 53.8807 150.743 53.8807C151.232 53.8807 151.657 53.9923 152.002 54.2235C152.347 54.4547 152.636 54.7657 152.852 55.1563V59.4059C152.628 59.8285 152.347 60.1554 152.002 60.3866C151.657 60.6178 151.232 60.7294 150.719 60.7294C149.909 60.7294 149.307 60.4504 148.914 59.8843C148.521 59.3182 148.321 58.5767 148.321 57.6439V57.4685L148.329 57.4765ZM147.615 53.8807C146.965 54.7896 146.636 55.9855 146.636 57.4765V57.6519C146.636 58.9754 146.965 60.0517 147.615 60.8729C148.264 61.6941 149.163 62.1007 150.302 62.1007C150.855 62.1007 151.336 61.9971 151.761 61.7978C152.186 61.5985 152.547 61.3035 152.852 60.9208V61.7978C152.852 62.5791 152.676 63.1771 152.323 63.5997C151.97 64.0222 151.416 64.2295 150.663 64.2295C150.254 64.2295 149.836 64.1737 149.411 64.0701C148.978 63.9584 148.609 63.8229 148.297 63.6634L147.863 64.971C148.256 65.1783 148.714 65.3457 149.235 65.4733C149.756 65.5929 150.237 65.6567 150.687 65.6567C151.922 65.6567 152.876 65.3138 153.55 64.6282C154.216 63.9425 154.552 63.0017 154.552 61.8058V52.6847H153.125L152.972 53.8488C152.676 53.4182 152.307 53.0834 151.866 52.8601C151.424 52.6289 150.911 52.5173 150.326 52.5173C149.171 52.5173 148.272 52.9718 147.623 53.8807M155.282 32.9119L156.116 32.7843V31.7H152.371V32.7843L153.43 32.9518L151.497 38.6923H151.449L151.136 37.5123L149.532 32.9518L150.582 32.7843V31.7H146.829V32.7843L147.679 32.9199L150.743 40.7573L150.342 41.714C150.173 42.1206 149.981 42.4714 149.756 42.7824C149.532 43.0933 149.243 43.2448 148.882 43.2448C148.818 43.2448 148.665 43.2368 148.433 43.2209C148.192 43.2049 148.096 43.197 148.128 43.2049L147.96 44.5284C148.072 44.5524 148.24 44.5843 148.449 44.6161C148.657 44.648 148.834 44.664 148.962 44.664C149.708 44.664 150.302 44.4328 150.743 43.9703C151.184 43.5079 151.521 42.9658 151.753 42.3518L155.29 32.9119H155.282ZM162.709 53.9445L160.776 59.685H160.728L160.415 58.505L158.811 53.9445L159.862 53.777V52.6927H156.108V53.777L156.959 53.9126L160.022 61.7499L159.621 62.7067C159.453 63.1133 159.26 63.4641 159.036 63.7751C158.811 64.086 158.522 64.2375 158.162 64.2375C158.097 64.2375 157.945 64.2295 157.712 64.2136C157.472 64.1976 157.376 64.1897 157.408 64.1976L157.239 65.5211C157.352 65.553 157.52 65.5769 157.728 65.6088C157.945 65.6407 158.113 65.6567 158.242 65.6567C158.988 65.6567 159.581 65.4255 160.022 64.963C160.463 64.5006 160.8 63.9584 161.033 63.3366L164.57 53.8966L165.404 53.7691V52.6847H161.658V53.7691L162.717 53.9365L162.709 53.9445ZM167.746 36.428C167.746 37.4086 167.537 38.2139 167.12 38.8517C166.703 39.4896 166.094 39.8085 165.292 39.8085C164.49 39.8085 163.856 39.4896 163.439 38.8517C163.022 38.2139 162.813 37.4086 162.813 36.428V36.2366C162.813 35.2719 163.022 34.4666 163.431 33.8208C163.84 33.175 164.458 32.8561 165.268 32.8561C166.078 32.8561 166.695 33.175 167.112 33.8208C167.529 34.4666 167.738 35.2719 167.738 36.2366V36.428H167.746ZM168.315 39.8085C169.061 38.9315 169.43 37.8073 169.43 36.428V36.2366C169.43 34.8653 169.061 33.7411 168.307 32.8561C167.561 31.9711 166.543 31.5326 165.26 31.5326C163.976 31.5326 162.974 31.9791 162.228 32.8641C161.482 33.7491 161.113 34.8732 161.113 36.2446V36.4359C161.113 37.8073 161.482 38.9315 162.228 39.8165C162.974 40.6935 163.992 41.132 165.276 41.132C166.559 41.132 167.561 40.6935 168.307 39.8165M176.167 27.6179C175.927 27.5621 175.71 27.5142 175.51 27.4824C175.309 27.4505 175.117 27.4345 174.924 27.4345C173.994 27.4345 173.272 27.7056 172.759 28.2398C172.237 28.774 171.981 29.5394 171.981 30.52V31.6921H170.529V32.9358H171.981V39.6092L170.577 39.8483V40.9247H175.068V39.8483L173.665 39.6092V32.9358H175.606V31.6921H173.665V30.52C173.665 29.9619 173.785 29.5394 174.026 29.2444C174.266 28.9494 174.635 28.8059 175.133 28.8059C175.285 28.8059 175.437 28.8138 175.582 28.8298C175.726 28.8457 175.854 28.8696 175.959 28.8936L176.167 27.6099V27.6179Z" fill="white"/>
<path d="M9.83301 13.7529H52.0281V7.54199H9.83301V13.7529ZM52.0201 55.6904H39.5163V24.6279H52.0201V18.417H33.2685V61.9093H52.0201V55.6984V55.6904Z" fill="#BDBDBD"/>
<path d="M28.577 7.54199H22.3291V13.7529H28.577V7.54199Z" fill="#E8E8E8"/>
<path d="M45.7723 18.4092H39.5244V24.6201H45.7723V18.4092Z" fill="#BDBDBD"/>
<path d="M39.5164 18.4092H33.2686V24.6201H39.5164V18.4092Z" fill="#E8E8E8"/>
<path d="M39.5164 24.6279H33.2686V37.0577H39.5164V24.6279Z" fill="#BDBDBD"/>
<path d="M28.5846 61.9094V18.4092H9.83301V24.6281H22.3287V49.4796H28.5846V55.6905H22.3287V61.9094H28.5846Z" fill="#E8E8E8"/>
<path d="M22.3289 18.4092H16.0811V24.6201H22.3289V18.4092Z" fill="#BDBDBD"/>
<path d="M22.3287 61.9093V55.6904H16.0809H9.83301V61.9093H16.0809H22.3287Z" fill="#CCCCCC"/>
<path d="M39.5164 24.6279H33.2686V30.8388H39.5164V24.6279Z" fill="#CCCCCC"/>
<path d="M28.577 49.4795H22.3291V55.6904H28.577V49.4795Z" fill="#CCCCCC"/>
<path d="M22.3289 55.6904H16.0811V61.9013H22.3289V55.6904Z" fill="#CCCCCC"/>
</svg>
