<svg width="32" height="32" viewBox="0 0 32 32" fill="none" xmlns="http://www.w3.org/2000/svg">
<path d="M28.4444 4.44531H3.55556C2.61256 4.44531 1.70819 4.81991 1.0414 5.48671C0.374602 6.15351 0 7.05788 0 8.00087L0 24.0009C0 24.9439 0.374602 25.8482 1.0414 26.515C1.70819 27.1818 2.61256 27.5564 3.55556 27.5564H28.4444C29.3874 27.5564 30.2918 27.1818 30.9586 26.515C31.6254 25.8482 32 24.9439 32 24.0009V8.00087C32 7.05788 31.6254 6.15351 30.9586 5.48671C30.2918 4.81991 29.3874 4.44531 28.4444 4.44531Z" fill="#003399"/>
<path d="M16.479 8.62306L17.2337 8.07461H16.3012L16.0123 7.1875L15.7243 8.07461H14.7919L15.5466 8.62306L15.2577 9.51017L16.0123 8.96172L16.767 9.51017L16.479 8.62306ZM16.479 24.0302L17.2337 23.4817H16.3012L16.0123 22.5946L15.7243 23.4817H14.7919L15.5466 24.0302L15.2577 24.9173L16.0123 24.3688L16.767 24.9173L16.479 24.0302ZM8.77589 16.3262L9.53056 15.7777H8.59722L8.30922 14.8906L8.02033 15.7777H7.08789L7.84256 16.3262L7.55456 17.2133L8.30922 16.6648L9.06389 17.2133L8.77589 16.3262ZM9.75989 12.5173L10.5146 11.9688H9.58122L9.29322 11.0817L9.00522 11.9688H8.07189L8.82656 12.5173L8.53856 13.4044L9.29322 12.8559L10.0479 13.4044L9.75989 12.5173ZM9.75989 20.1786L10.5146 19.6302H9.58122L9.29322 18.7431L9.00522 19.6302H8.07189L8.82656 20.1786L8.53856 21.0657L9.29322 20.5173L10.0479 21.0657L9.75989 20.1786ZM12.6274 9.65506L13.3821 9.10661H12.4488L12.1608 8.2195L11.8728 9.10661H10.9394L11.6941 9.65506L11.4061 10.5422L12.1608 9.99372L12.9154 10.5422L12.6274 9.65506ZM12.6274 23.0479L13.3821 22.4995H12.4488L12.1608 21.6124L11.8728 22.4995H10.9394L11.6941 23.0479L11.4061 23.9351L12.1608 23.3875L12.9154 23.9351L12.6274 23.0479ZM23.2239 16.3262L22.4692 15.7777H23.4026L23.6906 14.8906L23.9794 15.7777H24.9119L24.1572 16.3262L24.4452 17.2133L23.6906 16.6648L22.9359 17.2133L23.2239 16.3262ZM22.2399 12.5173L21.4852 11.9688H22.4186L22.7066 11.0817L22.9946 11.9688H23.9279L23.1732 12.5173L23.4612 13.4044L22.7066 12.8559L21.9519 13.4044L22.2399 12.5173ZM22.2399 20.1786L21.4852 19.6302H22.4186L22.7066 18.7431L22.9946 19.6302H23.9279L23.1732 20.1786L23.4612 21.0657L22.7066 20.5173L21.9519 21.0657L22.2399 20.1786ZM19.3723 9.65506L18.6177 9.10661H19.551L19.839 8.2195L20.127 9.10661H21.0603L20.3057 9.65506L20.5937 10.5422L19.839 9.99372L19.0843 10.5422L19.3723 9.65506ZM19.3723 23.0479L18.6177 22.4995H19.551L19.839 21.6124L20.127 22.4995H21.0603L20.3057 23.0479L20.5937 23.9351L19.839 23.3875L19.0843 23.9351L19.3723 23.0479Z" fill="#FFCC00"/>
</svg>
