<svg width="60" height="45" viewBox="0 0 60 45" fill="none" xmlns="http://www.w3.org/2000/svg">
<g clip-path="url(#clip0_16_73214)">
<g clip-path="url(#clip1_16_73214)">
<path d="M24 0H60V45H24V0Z" fill="#FF0000"/>
<path d="M0 0H24V45H0V0Z" fill="#006600"/>
<path fill-rule="evenodd" clip-rule="evenodd" d="M31.8281 28.7062C28.8 28.6125 14.9531 19.9687 14.8594 18.5812L15.6188 17.3156C16.9969 19.3125 31.1531 27.7219 32.55 27.4219L31.8281 28.7062Z" fill="#FFFF00"/>
<path fill-rule="evenodd" clip-rule="evenodd" d="M15.6179 17.2875C15.6275 17.2872 15.6365 17.2918 15.6419 17.2996C15.8116 17.5455 16.1806 17.893 16.7023 18.3136C17.2233 18.7334 17.8942 19.2241 18.6652 19.7562C20.2074 20.8202 22.1492 22.0489 24.0918 23.2059C26.0344 24.3629 27.9773 25.448 29.5217 26.225C30.2939 26.6135 30.966 26.9248 31.4883 27.1294C31.7495 27.2318 31.9726 27.3073 32.1517 27.3525C32.3322 27.398 32.4637 27.4116 32.5441 27.3944C32.555 27.392 32.5661 27.3963 32.5727 27.4052C32.5793 27.4141 32.58 27.426 32.5746 27.4356L31.8527 28.72C31.8476 28.7291 31.8378 28.7347 31.8273 28.7343C31.4439 28.7225 30.8927 28.5757 30.2237 28.3275C29.5539 28.079 28.7633 27.7279 27.9001 27.305C26.1737 26.4593 24.1552 25.3262 22.2288 24.1529C20.3023 22.9796 18.4673 21.7656 17.1078 20.758C16.4281 20.2543 15.8667 19.8017 15.472 19.4313C15.2747 19.2462 15.1185 19.081 15.0099 18.9397C14.9023 18.7998 14.8378 18.6789 14.8314 18.5831C14.831 18.5774 14.8324 18.5717 14.8353 18.5668L15.5947 17.3011C15.5996 17.2929 15.6083 17.2878 15.6179 17.2875ZM15.6208 17.3669L14.8882 18.5879C14.8967 18.6649 14.9513 18.7713 15.0545 18.9054C15.1605 19.0433 15.3143 19.2061 15.5105 19.3903C15.9029 19.7585 16.4623 20.2096 17.1413 20.7128C18.499 21.7191 20.3325 22.9321 22.258 24.1049C24.1835 25.2776 26.2004 26.4098 27.9249 27.2545C28.7871 27.6769 29.5759 28.0272 30.2433 28.2748C30.9014 28.5189 31.439 28.6622 31.8121 28.6775L32.4981 27.4569C32.4071 27.4623 32.2852 27.4441 32.138 27.407C31.9556 27.361 31.73 27.2846 31.4677 27.1818C30.9431 26.9762 30.2693 26.6641 29.4964 26.2752C27.9505 25.4975 26.0063 24.4117 24.063 23.2542C22.1197 22.0968 20.1767 20.8674 18.6333 19.8025C17.8616 19.27 17.1895 18.7784 16.667 18.3574C16.1692 17.9562 15.805 17.6172 15.6208 17.3669Z" fill="black"/>
<path fill-rule="evenodd" clip-rule="evenodd" d="M15.4594 17.1375C15.1875 17.8688 19.0782 20.2688 23.7469 23.1188C28.425 25.9594 32.4563 27.7125 32.7469 27.4688L32.8875 27.2063C32.8313 27.3 32.7 27.3281 32.4844 27.2625C31.2188 26.8969 27.9282 25.3875 23.85 22.9125C19.7625 20.4375 16.2188 18.1594 15.6657 17.1938C15.6225 17.1032 15.6032 17.0032 15.6094 16.9031H15.5907L15.4782 17.1094L15.4594 17.1375ZM31.8938 28.7438C31.8469 28.8375 31.7438 28.8375 31.5657 28.8188C30.4407 28.6969 27.0094 27.0281 22.95 24.6C18.225 21.7688 14.325 19.2 14.7563 18.525L14.8688 18.3188L14.8875 18.3281C14.5125 19.4719 22.5844 24.0844 23.0625 24.3844C27.7313 27.2719 31.6688 28.9688 32.0157 28.5281L31.8938 28.7438Z" fill="#FFFF00"/>
<path fill-rule="evenodd" clip-rule="evenodd" d="M15.5659 16.8897C15.5709 16.8806 15.5803 16.875 15.5906 16.875H15.6094C15.6171 16.875 15.6245 16.8782 15.6299 16.8839C15.6352 16.8895 15.6379 16.8971 15.6374 16.9049C15.6315 16.9998 15.6498 17.0947 15.6906 17.1807C15.8263 17.417 16.1474 17.7372 16.6208 18.1249C17.0938 18.5122 17.7155 18.9643 18.4483 19.4639C19.9136 20.463 21.8209 21.651 23.8646 22.8884L23.8646 22.8885C27.9422 25.3632 31.2302 26.8709 32.4922 27.2355L32.4926 27.2356C32.5982 27.2678 32.6803 27.276 32.7413 27.2664C32.8013 27.2569 32.8402 27.2304 32.8634 27.1918C32.8712 27.1787 32.8881 27.1743 32.9014 27.1818C32.9146 27.1893 32.9195 27.2061 32.9123 27.2195L32.7717 27.482C32.77 27.4852 32.7677 27.488 32.7649 27.4903C32.7386 27.5124 32.6968 27.5195 32.6492 27.5194C32.5999 27.5192 32.5374 27.5111 32.4629 27.4959C32.3139 27.4653 32.1129 27.4053 31.8665 27.3179C31.3734 27.143 30.6951 26.8575 29.8802 26.4759C28.2504 25.7125 26.0721 24.5636 23.7323 23.1428L23.7322 23.1428C21.398 21.7179 19.2575 20.4049 17.7344 19.3568C16.9731 18.8328 16.3649 18.3742 15.9639 18.0004C15.7635 17.8136 15.6135 17.6468 15.5222 17.5026C15.4316 17.3597 15.3942 17.2321 15.433 17.1277L15.4594 17.1375L15.436 17.1219L15.454 17.0948L15.5659 16.8897ZM15.4847 17.1503C15.4572 17.2284 15.4824 17.3348 15.5697 17.4725C15.6573 17.6107 15.8032 17.7736 16.0022 17.9592C16.4001 18.3301 17.0054 18.7868 17.7663 19.3104C19.2878 20.3575 21.4269 21.6696 23.7615 23.0947C26.0997 24.5145 28.2762 25.6625 29.9041 26.4249C30.7181 26.8062 31.3946 27.0908 31.8853 27.2649C32.1307 27.3519 32.3289 27.411 32.4742 27.4408C32.547 27.4557 32.6054 27.463 32.6494 27.4632C32.6901 27.4633 32.7134 27.4571 32.7251 27.4499L32.8003 27.3095C32.7847 27.3149 32.7679 27.3191 32.7501 27.3219C32.6775 27.3334 32.5862 27.3229 32.4764 27.2895C31.207 26.9227 27.9139 25.4117 23.8354 22.9366C21.7916 21.699 19.8832 20.5104 18.4166 19.5103C17.6833 19.0103 17.0599 18.5572 16.5852 18.1684C16.1114 17.7804 15.7824 17.4541 15.6412 17.2077C15.6409 17.2071 15.6405 17.2065 15.6402 17.2058C15.6062 17.1344 15.5863 17.0574 15.5813 16.9789L15.5028 17.1228C15.5024 17.1236 15.502 17.1243 15.5015 17.125L15.4847 17.1503ZM14.8441 18.3053C14.8513 18.292 14.8678 18.2868 14.8813 18.2936L14.9001 18.303C14.9125 18.3092 14.9186 18.3236 14.9142 18.3369C14.8936 18.3997 14.9011 18.4775 14.9384 18.5709C14.9756 18.6641 15.0416 18.7701 15.1336 18.887C15.3176 19.121 15.6023 19.3947 15.9575 19.6932C16.6677 20.2901 17.6553 20.9825 18.6705 21.6491C20.286 22.71 21.9671 23.7029 22.7087 24.1409C22.8995 24.2536 23.0281 24.3296 23.0774 24.3605C25.4109 25.8037 27.5614 26.9492 29.1714 27.6787C29.9765 28.0435 30.6457 28.3039 31.1347 28.4456C31.3794 28.5165 31.5776 28.5573 31.7247 28.5669C31.7982 28.5718 31.8576 28.5687 31.903 28.5585C31.9486 28.5482 31.9773 28.5313 31.9935 28.5107C32.0026 28.4992 32.0191 28.4966 32.0313 28.5048C32.0435 28.513 32.0473 28.5292 32.0401 28.542L31.9186 28.757C31.8903 28.813 31.8443 28.8406 31.7837 28.8511C31.7254 28.8613 31.6512 28.856 31.5627 28.8467L31.5626 28.8467C31.2774 28.8158 30.8491 28.6875 30.3055 28.4758C29.7612 28.2639 29.0992 27.9677 28.3458 27.5995C26.8391 26.8631 24.9657 25.8385 22.9356 24.6241L22.9355 24.6241C20.5729 23.2084 18.4159 21.858 16.9032 20.7768C16.147 20.2363 15.5507 19.7624 15.1702 19.3807C14.9801 19.19 14.8424 19.0209 14.7659 18.8769C14.6901 18.7343 14.6703 18.6082 14.732 18.5107L14.8441 18.3053ZM31.8937 28.7438L31.8693 28.7299L31.9386 28.6073C31.9311 28.6095 31.9233 28.6116 31.9154 28.6134C31.8627 28.6252 31.7974 28.6281 31.721 28.6231C31.568 28.613 31.3653 28.571 31.1191 28.4996C30.6263 28.3568 29.9543 28.0952 29.1481 27.7299C27.5355 26.9992 25.3829 25.8525 23.0477 24.4083L23.0475 24.4082C22.9994 24.378 22.8725 24.3031 22.684 24.1917C21.9449 23.7552 20.2575 22.7586 18.6396 21.6962C17.624 21.0292 16.6341 20.3353 15.9213 19.7363C15.5651 19.4369 15.2769 19.1602 15.0894 18.9218C14.9956 18.8026 14.9262 18.6919 14.8861 18.5918C14.8617 18.5305 14.8478 18.4722 14.8468 18.4178L14.7809 18.5385C14.7806 18.539 14.7803 18.5396 14.7799 18.5401C14.7345 18.6113 14.7424 18.7128 14.8155 18.8505C14.8882 18.9872 15.0213 19.1517 15.21 19.341C15.5871 19.7193 16.1803 20.191 16.9359 20.731C18.4466 21.8108 20.602 23.1603 22.9644 24.5759C24.9936 25.7896 26.8656 26.8134 28.3705 27.5489C29.1231 27.9167 29.7835 28.2123 30.3259 28.4234C30.8688 28.6348 31.2913 28.7607 31.5686 28.7908C31.6581 28.8002 31.7246 28.8043 31.7741 28.7957C31.8211 28.7875 31.8499 28.7685 31.8686 28.7312L31.8937 28.7438Z" fill="black"/>
<path fill-rule="evenodd" clip-rule="evenodd" d="M24.0188 19.425C27.0376 19.3969 30.7688 19.0125 32.9251 18.15L32.4563 17.4C31.1907 18.1031 27.4407 18.5719 23.9907 18.6375C19.9219 18.6 17.0438 18.2156 15.6001 17.25L15.1688 18.0563C17.8126 19.1813 20.5313 19.4156 24.0188 19.425Z" fill="#FFFF00"/>
<path fill-rule="evenodd" clip-rule="evenodd" d="M15.5932 17.2227C15.6009 17.2208 15.609 17.2222 15.6156 17.2266C16.3324 17.706 17.4081 18.0427 18.8153 18.264C20.2219 18.4852 21.9569 18.5906 23.9905 18.6094C25.7144 18.5766 27.5131 18.443 29.0387 18.2299C29.8015 18.1234 30.4958 17.997 31.078 17.8534C31.6607 17.7098 32.1295 17.5494 32.4426 17.3754C32.4557 17.3681 32.4722 17.3724 32.4801 17.3851L32.9489 18.1351C32.9533 18.1421 32.9543 18.1508 32.9517 18.1587C32.9491 18.1666 32.9432 18.173 32.9354 18.1761C30.7741 19.0407 27.0384 19.425 24.019 19.4531C24.0189 19.4531 24.0188 19.4531 24.0187 19.4531C24.0033 19.453 23.9908 19.4406 23.9906 19.4252C23.9905 19.4097 24.003 19.397 24.0185 19.3969C24.0185 19.3969 24.0186 19.3969 24.0187 19.3969C20.5446 19.3875 17.8375 19.1547 15.2081 18.0424L15.6102 17.2905C16.337 17.7675 17.4132 18.1005 18.8066 18.3196C20.2171 18.5414 21.9553 18.6469 23.9904 18.6656L23.9904 18.6656L23.9912 18.6656C25.7171 18.6328 27.5183 18.4991 29.0465 18.2857C29.8106 18.1789 30.5068 18.0522 31.0914 17.9081C31.6616 17.7675 32.1272 17.61 32.4465 17.4374L32.8833 18.1363C30.7275 18.988 27.0222 19.3689 24.0187 19.3969M15.5932 17.2227C15.5855 17.2246 15.5789 17.2297 15.5752 17.2367L15.5932 17.2227ZM15.5752 17.2367L15.1439 18.043L15.5752 17.2367ZM24.0187 19.4531C20.5303 19.4437 17.8069 19.2094 15.1577 18.0821C15.1505 18.079 15.1448 18.073 15.1422 18.0656C15.1396 18.0581 15.1402 18.0499 15.1439 18.043" fill="black"/>
<path fill-rule="evenodd" clip-rule="evenodd" d="M33.0469 18.1688C32.9719 18.2906 31.5657 18.7688 29.5032 19.125C27.685 19.4005 25.8483 19.5353 24.0094 19.5281C22.2476 19.5348 20.4873 19.422 18.7407 19.1906C16.575 18.8531 15.4594 18.3844 15.0375 18.2156L15.1407 18.0094C16.3313 18.4781 17.4563 18.7594 18.7688 18.9656C20.5027 19.1998 22.2505 19.3157 24 19.3125C25.8294 19.3144 27.6564 19.1797 29.4657 18.9094C31.575 18.5625 32.7282 18.1219 32.8969 17.925L33.0469 18.1781V18.1688ZM32.6344 17.4094C32.4094 17.5969 31.2657 18 29.2594 18.3188C27.527 18.5694 25.7787 18.6947 24.0282 18.6938C21.9657 18.6938 20.2688 18.5438 18.9844 18.3563C16.9407 18.0938 15.8532 17.6063 15.4594 17.475L15.5813 17.2688C15.8907 17.4281 16.9313 17.85 19.0032 18.1406C20.6687 18.3637 22.3478 18.4703 24.0282 18.4594C25.7662 18.4599 27.502 18.3346 29.2219 18.0844C31.2376 17.8031 32.3251 17.2969 32.4938 17.1656L32.6344 17.4094ZM14.0907 23.0625C15.9469 24.0656 20.0813 24.5625 23.9907 24.6C27.5532 24.6094 32.1844 24.0563 33.9188 23.1375L33.8719 22.1344C33.3282 22.9781 28.3594 23.7938 23.9532 23.7656C19.5469 23.7281 15.45 23.0531 14.0813 22.1719V23.0625" fill="#FFFF00"/>
<path fill-rule="evenodd" clip-rule="evenodd" d="M32.4993 17.138C32.5072 17.1396 32.5141 17.1445 32.5182 17.1516L32.6588 17.3953L32.6345 17.4094L32.6525 17.431C32.5926 17.4809 32.4753 17.5426 32.3049 17.6118C32.1336 17.6814 31.9058 17.7596 31.6228 17.8419C31.0566 18.0063 30.268 18.187 29.2639 18.3465L29.2635 18.3466C27.5297 18.5974 25.7801 18.7229 24.0282 18.7219L24.0282 18.6938V18.7219C24.0282 18.7219 24.0282 18.7219 24.0282 18.7219C21.9645 18.7219 20.2664 18.5718 18.9807 18.3841C18.9807 18.3841 18.9808 18.3841 18.9809 18.3842L18.9845 18.3563L18.9804 18.3841C18.9805 18.3841 18.9806 18.3841 18.9807 18.3841C17.2329 18.1596 16.1824 17.7706 15.6683 17.5802C15.5803 17.5476 15.508 17.5208 15.4506 17.5017C15.4425 17.499 15.4361 17.4928 15.4331 17.4849C15.4302 17.4769 15.4309 17.468 15.4353 17.4607L15.5571 17.2545C15.5647 17.2416 15.581 17.2369 15.5942 17.2438C15.9 17.4013 16.9373 17.8224 19.007 18.1128C19.007 18.1128 19.007 18.1128 19.007 18.1128L19.0032 18.1406L19.0071 18.1128C19.0071 18.1128 19.0071 18.1128 19.007 18.1128C20.6713 18.3357 22.349 18.4421 24.028 18.4313L24.0282 18.4313C25.7649 18.4318 27.4993 18.3066 29.2179 18.0566L29.2181 18.0565C30.2243 17.9161 30.9985 17.7196 31.5418 17.542C31.8134 17.4532 32.0272 17.3692 32.1834 17.2993C32.3403 17.2291 32.4373 17.174 32.4766 17.1434C32.483 17.1384 32.4913 17.1365 32.4993 17.138ZM32.5979 17.4022L32.4849 17.2065C32.4317 17.2417 32.3384 17.2916 32.2064 17.3507C32.0482 17.4215 31.8325 17.5062 31.5592 17.5955C31.0127 17.7742 30.2353 17.9714 29.2259 18.1122C27.5047 18.3626 25.7676 18.488 24.0283 18.4875C22.3466 18.4984 20.6663 18.3918 18.9995 18.1685L18.9993 18.1685C16.9749 17.8845 15.9319 17.4751 15.5922 17.3058L15.5013 17.4596C15.5532 17.4776 15.6151 17.5005 15.6876 17.5274C16.2021 17.7179 17.247 18.1048 18.9881 18.3284L18.9885 18.3284L18.9885 18.3284C20.2716 18.5157 21.9671 18.6656 24.0282 18.6656H24.0282C25.7773 18.6666 27.5242 18.5414 29.2553 18.291C30.2573 18.1317 31.0436 17.9515 31.6071 17.7878C31.8889 17.706 32.1147 17.6284 32.2838 17.5597C32.4358 17.4979 32.5399 17.4442 32.5979 17.4022ZM32.8994 17.897C32.9084 17.8978 32.9165 17.9029 32.9212 17.9107L33.0591 18.1434C33.0687 18.148 33.0751 18.1578 33.0751 18.1688V18.1781C33.0751 18.1908 33.0666 18.2019 33.0544 18.2053C33.0531 18.2056 33.0517 18.2059 33.0504 18.2061C33.0451 18.2105 33.0394 18.2147 33.0334 18.2188C33.0171 18.2301 32.996 18.2422 32.9706 18.2553C32.9197 18.2813 32.8496 18.3118 32.7618 18.3457C32.5862 18.4136 32.3381 18.4962 32.0282 18.586C31.4084 18.7656 30.5402 18.9744 29.508 19.1527L29.5074 19.1528C27.6879 19.4285 25.8498 19.5634 24.0095 19.5563C22.2464 19.5629 20.4849 19.45 18.737 19.2185L18.7364 19.2184L18.7364 19.2184C16.6477 18.8929 15.5338 18.4453 15.0767 18.2616C15.0592 18.2546 15.0427 18.248 15.0272 18.2418C15.0198 18.2388 15.0141 18.233 15.0113 18.2256C15.0085 18.2183 15.0089 18.2101 15.0124 18.2031L15.1156 17.9968C15.1221 17.9838 15.1375 17.9779 15.151 17.9832C16.3393 18.451 17.4622 18.7318 18.7729 18.9378C20.5054 19.1717 22.2518 19.2875 24 19.2844H24.0001C25.828 19.2863 27.6535 19.1517 29.4614 18.8816C30.515 18.7083 31.3292 18.5117 31.9007 18.3341C32.1866 18.2452 32.4113 18.1613 32.5747 18.0875C32.6564 18.0506 32.7225 18.0164 32.773 17.9856C32.8239 17.9545 32.8574 17.9279 32.8756 17.9067C32.8815 17.8998 32.8904 17.8962 32.8994 17.897ZM33.0081 18.1678L32.8912 17.9704C32.8682 17.9905 32.8383 18.0116 32.8022 18.0336C32.7492 18.066 32.6809 18.1012 32.5979 18.1387C32.4317 18.2138 32.2047 18.2985 31.9174 18.3878C31.3429 18.5664 30.526 18.7635 29.4703 18.9371L29.4699 18.9372C27.6592 19.2077 25.8309 19.3426 24.0001 19.3406C22.2493 19.3438 20.5002 19.2278 18.7651 18.9935L18.7645 18.9934L18.7645 18.9934C17.4592 18.7883 16.3384 18.509 15.1544 18.045L15.0764 18.2009C15.0833 18.2037 15.0904 18.2065 15.0977 18.2095C15.5528 18.3923 16.6624 18.8382 18.7447 19.1628C20.49 19.394 22.2489 19.5066 24.0094 19.5H24.0096C25.8469 19.5072 27.6821 19.3725 29.4987 19.0972C30.5289 18.9193 31.3949 18.711 32.0126 18.532C32.3215 18.4425 32.5679 18.3604 32.7415 18.2933C32.8284 18.2597 32.8965 18.23 32.9449 18.2052C32.9692 18.1928 32.988 18.1818 33.0015 18.1725C33.004 18.1708 33.0062 18.1692 33.0081 18.1678ZM33.8793 22.1072C33.8911 22.1104 33.8995 22.1209 33.9001 22.1331L33.9469 23.1362C33.9475 23.1471 33.9416 23.1573 33.932 23.1624C33.06 23.6243 31.4642 23.9927 29.6442 24.2447C27.823 24.4968 25.7732 24.6328 23.9907 24.6281L23.9905 24.6281C22.0348 24.6094 20.0226 24.4757 18.2668 24.2212C16.5157 23.9674 15.0166 23.5929 14.0835 23.0906C14.0828 23.0906 14.0821 23.0906 14.0813 23.0906C14.0658 23.0906 14.0532 23.078 14.0532 23.0625V22.1719C14.0532 22.1616 14.0588 22.1521 14.0679 22.1472C14.0769 22.1423 14.0879 22.1427 14.0966 22.1482C14.7756 22.5854 16.1367 22.9738 17.8827 23.2574C19.6272 23.5407 21.7516 23.7188 23.9534 23.7375C26.1549 23.7516 28.4971 23.5548 30.3565 23.2492C31.2862 23.0964 32.0945 22.9165 32.7039 22.7224C33.0086 22.6253 33.2628 22.5249 33.4573 22.423C33.6527 22.3206 33.7844 22.2183 33.8483 22.1192C33.855 22.1089 33.8675 22.104 33.8793 22.1072ZM14.1095 23.0407C15.0334 23.5383 16.5245 23.9118 18.2748 24.1655C20.0276 24.4196 22.0373 24.5531 23.991 24.5719M14.1095 23.0407V22.2228V23.0407Z" fill="black"/>
<path fill-rule="evenodd" clip-rule="evenodd" d="M34.0125 22.9219V23.1563C33.75 23.475 32.1187 23.9438 30.075 24.2813C28.0446 24.5731 25.995 24.711 23.9437 24.6938C21.9987 24.7103 20.0554 24.5756 18.1312 24.2906C16.6955 24.1247 15.2926 23.7456 13.9688 23.1656V22.8938C14.8781 23.4938 17.3344 23.9438 18.1594 24.075C19.6406 24.3 21.5437 24.4688 23.9437 24.4688C26.4656 24.4688 28.4812 24.2906 30.0375 24.0563C31.5094 23.8406 33.6 23.2875 34.0125 22.9219ZM34.0125 22.0781V22.3125C33.75 22.6219 32.1187 23.0906 30.075 23.4281C28.0448 23.7231 25.9952 23.8642 23.9437 23.85C21.9989 23.8615 20.0559 23.7267 18.1312 23.4469C16.6955 23.281 15.2926 22.9018 13.9688 22.3219V22.0406C14.8781 22.65 17.3437 23.0906 18.1594 23.2219C20.0745 23.5024 22.0082 23.6372 23.9437 23.625C26.4656 23.625 28.4906 23.4375 30.0375 23.2031C31.5094 22.9969 33.6 22.4438 34.0125 22.0781ZM23.9813 28.5281C19.7063 28.5094 16.0406 27.3656 15.2625 27.1781L15.825 28.0594C18.4546 28.9907 21.2295 29.4447 24.0188 29.4C27.2719 29.3063 30.1125 29.0531 32.1094 28.0781L32.6906 27.1594C31.3313 27.8063 26.6906 28.5281 23.9719 28.5281" fill="#FFFF00"/>
<path fill-rule="evenodd" clip-rule="evenodd" d="M13.9556 22.0158C13.9647 22.0109 13.9758 22.0115 13.9845 22.0173C14.4344 22.3188 15.2734 22.5804 16.1059 22.7832C16.9368 22.9857 17.7562 23.1285 18.1637 23.1941C20.0774 23.4744 22.0096 23.6091 23.9436 23.5969L23.9438 23.5969C26.4643 23.5969 28.4879 23.4095 30.0333 23.1753L30.0336 23.1753C30.7682 23.0723 31.6576 22.8828 32.4148 22.6733C32.7934 22.5686 33.1385 22.459 33.4143 22.3529C33.6915 22.2464 33.895 22.1447 33.9939 22.0571L34.0125 22.0781H34.0407V22.3125C34.0407 22.3192 34.0383 22.3256 34.034 22.3307C33.9981 22.373 33.9408 22.416 33.866 22.4597C33.7909 22.5036 33.6964 22.5492 33.5848 22.5958C33.3616 22.6891 33.0681 22.7876 32.7195 22.8868C32.0221 23.0852 31.1023 23.287 30.0796 23.4559L30.0791 23.456C28.0476 23.7512 25.9966 23.8923 23.9438 23.8781C21.9977 23.8896 20.0535 23.7548 18.1277 23.4748C16.6893 23.3085 15.2838 22.9286 13.9575 22.3476C13.9473 22.3432 13.9407 22.3331 13.9407 22.3219V22.0406C13.9407 22.0303 13.9464 22.0207 13.9556 22.0158ZM33.9844 22.1365C33.8679 22.2214 33.6756 22.3127 33.4345 22.4054C33.1564 22.5123 32.8094 22.6225 32.4298 22.7275C31.6706 22.9375 30.7789 23.1276 30.0416 23.231C28.4934 23.4655 26.467 23.6531 23.9439 23.6531C23.9439 23.6531 23.9438 23.6531 23.9438 23.6531V23.625L23.944 23.6531C23.9439 23.6531 23.9439 23.6531 23.9439 23.6531C22.0069 23.6653 20.0719 23.5305 18.1553 23.2497L18.155 23.2497L18.155 23.2497C17.7468 23.184 16.9257 23.0409 16.0926 22.8379C15.2868 22.6415 14.4651 22.3881 13.9969 22.0925V22.0406H13.9688L13.9531 22.064C13.9674 22.0735 13.982 22.083 13.9969 22.0925V22.3035C13.9913 22.301 13.9857 22.2986 13.9801 22.2961L13.9688 22.3219H13.9969V22.3035C15.3132 22.8781 16.7077 23.2541 18.1345 23.4189L18.1353 23.419L18.1353 23.4191C20.0586 23.6987 22.0002 23.8333 23.9436 23.8219L23.944 23.8219C25.9939 23.836 28.042 23.6951 30.0707 23.4003C30.0706 23.4004 30.0706 23.4004 30.0705 23.4004L30.075 23.4281L30.071 23.4003C30.0709 23.4003 30.0708 23.4003 30.0707 23.4003C31.0917 23.2317 32.0093 23.0304 32.7041 22.8327C33.0515 22.7339 33.3428 22.6361 33.5631 22.5439C33.6733 22.4979 33.7653 22.4534 33.8376 22.4111C33.9051 22.3717 33.954 22.335 33.9844 22.3019V22.3125H34.0125L33.9911 22.2943C33.989 22.2968 33.9868 22.2993 33.9844 22.3019V22.1365ZM13.9555 22.869C13.9646 22.8641 13.9757 22.8646 13.9843 22.8703C14.4344 23.1672 15.2712 23.4288 16.1025 23.6329C16.9322 23.8365 17.7517 23.9817 18.1637 24.0472C19.6435 24.272 21.5452 24.4406 23.9438 24.4406C26.4643 24.4406 28.4786 24.2626 30.0334 24.0285L30.0335 24.0284C30.7681 23.9208 31.6576 23.7289 32.4148 23.5182C32.7934 23.4129 33.1384 23.303 33.4143 23.1968C33.6915 23.0901 33.895 22.9885 33.9939 22.9008L34.0125 22.9219H34.0407V23.1563C34.0407 23.1628 34.0384 23.1691 34.0343 23.1741C33.9984 23.2176 33.941 23.2618 33.8662 23.3064C33.791 23.3513 33.6966 23.3976 33.585 23.4449C33.3617 23.5396 33.0681 23.639 32.7195 23.7388C32.0221 23.9384 31.1023 24.1401 30.0796 24.309L30.079 24.3091C28.0473 24.6012 25.9964 24.7391 23.9438 24.7219C21.9975 24.7385 20.053 24.6036 18.1276 24.3185C16.6893 24.1523 15.2838 23.7724 13.9575 23.1914C13.9473 23.1869 13.9407 23.1768 13.9407 23.1656V22.8938C13.9407 22.8834 13.9464 22.8739 13.9555 22.869ZM33.9844 22.9803C33.8679 23.0652 33.6756 23.1565 33.4345 23.2493C33.1564 23.3564 32.8095 23.4668 32.4298 23.5724C31.6706 23.7836 30.7789 23.9761 30.0417 24.0841C28.484 24.3187 26.467 24.4969 23.9438 24.4969C21.5425 24.4969 19.6379 24.328 18.1552 24.1028L18.155 24.1028C17.742 24.0371 16.9209 23.8916 16.089 23.6875C15.2842 23.49 14.4648 23.2365 13.9969 22.9452V23.1472C15.3132 23.7219 16.7077 24.0978 18.1345 24.2627L18.1354 24.2628L18.1354 24.2628C20.0581 24.5475 22 24.6822 23.9436 24.6656H23.944C25.9937 24.6829 28.0418 24.5451 30.0708 24.2535C31.0917 24.0849 32.0093 23.8835 32.704 23.6847C33.0515 23.5853 33.3427 23.4866 33.563 23.3932C33.6732 23.3464 33.7652 23.3012 33.8374 23.2581C33.9051 23.2177 33.954 23.1801 33.9844 23.1459V22.9803ZM32.7117 27.1407C32.72 27.1501 32.7211 27.1638 32.7144 27.1744L32.1332 28.0932C32.1304 28.0976 32.1264 28.1011 32.1218 28.1034C30.1187 29.0814 27.2721 29.3344 24.0196 29.4281L24.0192 29.4281C21.2266 29.4729 18.4484 29.0183 15.8157 28.0859C15.8098 28.0838 15.8047 28.0798 15.8013 28.0745L15.2388 27.1933C15.2327 27.1836 15.233 27.1711 15.2397 27.1618C15.2463 27.1525 15.258 27.1481 15.2691 27.1508C15.3644 27.1738 15.5028 27.211 15.68 27.2587C16.953 27.6012 20.2321 28.4835 23.9807 28.5C25.3372 28.4992 27.1712 28.3192 28.8367 28.0586C30.507 27.7972 32.0031 27.4554 32.6786 27.134C32.6899 27.1286 32.7034 27.1314 32.7117 27.1407ZM23.9702 28.5562C23.9708 28.5562 23.9713 28.5563 23.9719 28.5563C23.9749 28.5563 23.9778 28.5563 23.9808 28.5563M23.9702 28.5562C20.2176 28.5381 16.9353 27.6548 15.665 27.3129C15.527 27.2758 15.4127 27.245 15.3242 27.2224L15.8436 28.0361C18.4672 28.9641 21.2355 29.4165 24.0182 29.3719C27.268 29.2782 30.0997 29.0254 32.0899 28.0564L32.6165 27.224C31.8979 27.5376 30.4479 27.8633 28.8454 28.1141C27.1786 28.375 25.3421 28.5554 23.9817 28.5563" fill="black"/>
<path fill-rule="evenodd" clip-rule="evenodd" d="M32.3344 27.8719C32.249 27.9983 32.1615 28.1234 32.0719 28.2469C31.1344 28.5843 29.6344 28.9406 29.0156 29.0344C27.3553 29.3437 25.6702 29.5006 23.9813 29.5031C20.1938 29.4469 17.0906 28.7062 15.6375 28.0687L15.5156 27.8719L15.5344 27.8344L15.7313 27.9187C18.3994 28.8017 21.1896 29.2604 24 29.2781C25.7625 29.2781 27.5156 29.0812 28.9313 28.8281C31.1063 28.3875 31.9875 28.0594 32.2594 27.9094L32.325 27.8719H32.3344ZM32.8313 27.0469C32.7695 27.1567 32.707 27.266 32.6438 27.375C32.1375 27.5625 30.7687 27.9562 28.7719 28.2375C27.4594 28.4156 26.6437 28.5937 24.0281 28.6406C21.0381 28.6106 18.0664 28.1689 15.1969 27.3281L15.0938 27.0937C18.0092 27.8995 21.0134 28.3404 24.0375 28.4062C26.4281 28.3594 27.45 28.1812 28.7531 28.0031C31.0781 27.6469 32.25 27.2531 32.5969 27.15C32.5971 27.1437 32.5971 27.1375 32.5969 27.1312L32.8406 27.0375L32.8313 27.0469Z" fill="#FFFF00"/>
<path fill-rule="evenodd" clip-rule="evenodd" d="M32.8643 27.0222C32.8715 27.0333 32.87 27.048 32.8606 27.0574L32.8539 27.0641C32.7927 27.1728 32.7308 27.2812 32.6681 27.3892C32.6648 27.3948 32.6597 27.3991 32.6536 27.4014C32.145 27.5898 30.7742 27.9839 28.7758 28.2654L28.7757 28.2654C28.5725 28.293 28.3811 28.3206 28.1931 28.3477C27.1671 28.4956 26.2408 28.6291 24.0287 28.6688L24.0279 28.6688C21.0353 28.6387 18.061 28.1967 15.189 27.3551C15.1811 27.3528 15.1745 27.3471 15.1712 27.3395L15.0681 27.1051C15.0637 27.0952 15.0654 27.0836 15.0725 27.0754C15.0796 27.0672 15.0908 27.0638 15.1013 27.0667C18.0143 27.8718 21.016 28.3123 24.0376 28.3781C26.1663 28.3364 27.2083 28.1905 28.3322 28.0332C28.4693 28.014 28.6075 27.9947 28.7491 27.9753C30.8685 27.6506 32.0284 27.2947 32.4786 27.1566C32.5128 27.1461 32.5428 27.1369 32.5689 27.1291C32.5697 27.1184 32.5766 27.1089 32.5868 27.105L32.8306 27.0113C32.843 27.0065 32.857 27.0111 32.8643 27.0222ZM32.7725 27.0939L32.625 27.1506C32.625 27.1507 32.625 27.1509 32.625 27.151C32.6246 27.1631 32.6165 27.1735 32.6049 27.177C32.5746 27.186 32.5379 27.1973 32.4946 27.2105C32.0436 27.3489 30.8808 27.7056 28.7574 28.031L28.757 28.031C28.6154 28.0504 28.4771 28.0697 28.34 28.0889C27.2153 28.2464 26.1706 28.3926 24.0381 28.4344L24.0369 28.4344V28.4344C21.0303 28.3689 18.0432 27.933 15.1434 27.1366L15.2174 27.3048C18.0804 28.1425 21.0451 28.5825 24.0281 28.6125C26.2364 28.5729 27.16 28.4398 28.1852 28.292C28.3732 28.2649 28.5647 28.2373 28.7681 28.2097C30.751 27.9304 32.1131 27.5402 32.6246 27.3521C32.6744 27.2663 32.7237 27.1802 32.7725 27.0939ZM15.5093 27.8218C15.5159 27.8085 15.5318 27.8027 15.5455 27.8086L15.7413 27.8925C18.4063 28.7742 21.1931 29.2323 24.0001 29.25C25.7605 29.25 27.5118 29.0534 28.926 28.8005C31.1004 28.36 31.9778 28.0326 32.2457 27.8849C32.2457 27.8848 32.2458 27.8848 32.2458 27.8848L32.3111 27.8475C32.3153 27.8451 32.3202 27.8438 32.325 27.8438H32.3344C32.3448 27.8438 32.3544 27.8495 32.3593 27.8587C32.3641 27.8679 32.3636 27.879 32.3577 27.8876C32.2722 28.0144 32.1845 28.1397 32.0947 28.2634C32.0914 28.268 32.0868 28.2715 32.0815 28.2734C31.1424 28.6114 29.6411 28.968 29.0204 29.0621C27.3585 29.3718 25.6718 29.5288 23.9813 29.5313L23.9809 29.5313C20.1907 29.475 17.0837 28.7339 15.6263 28.0945C15.621 28.0922 15.6166 28.0884 15.6136 28.0836L15.4918 27.8867C15.4866 27.8784 15.4862 27.868 15.4905 27.8593L15.5093 27.8218ZM15.5481 27.8709L15.6569 28.0465C17.109 28.6813 20.2037 29.4189 23.9815 29.475C25.6686 29.4726 27.352 29.3158 29.0105 29.0068L29.0115 29.0066L29.0115 29.0066C29.6267 28.9134 31.118 28.5594 32.0542 28.2234C32.1205 28.132 32.1856 28.0397 32.2495 27.9466C31.9486 28.104 31.0536 28.4269 28.9369 28.8557L28.9363 28.8558C27.5193 29.1092 25.7645 29.3063 24 29.3063L23.9999 29.3063C21.1865 29.2885 18.3934 28.8293 15.7225 27.9455C15.7217 27.9452 15.721 27.9449 15.7202 27.9446L15.5481 27.8709Z" fill="black"/>
<path fill-rule="evenodd" clip-rule="evenodd" d="M32.8876 22.275C32.8969 25.0875 31.4532 27.6187 30.3001 28.725C28.597 30.386 26.3225 31.332 23.9438 31.3687C21.1032 31.4156 18.4313 29.5688 17.7094 28.7531C16.0945 27.0406 15.1754 24.7879 15.1313 22.4344C15.3001 19.3594 16.5094 17.2219 18.2532 15.75C19.9471 14.3555 22.078 13.6021 24.2719 13.6219C25.5527 13.684 26.8063 14.0129 27.9525 14.5876C29.0988 15.1624 30.1123 15.9702 30.9282 16.9594C32.1001 18.3844 32.6157 19.9313 32.8876 22.275ZM23.9626 12.6563C26.5852 12.6562 29.1016 13.6929 30.9631 15.5403C32.8246 17.3878 33.8803 19.8962 33.9001 22.5187C33.9001 23.8201 33.6438 25.1086 33.1458 26.3109C32.6478 27.5132 31.9178 28.6056 30.9977 29.5257C30.0775 30.4459 28.9851 31.1758 27.7828 31.6738C26.5806 32.1718 25.292 32.4281 23.9907 32.4281C22.6894 32.4281 21.4008 32.1718 20.1985 31.6738C18.9963 31.1758 17.9039 30.4459 16.9837 29.5257C16.0635 28.6056 15.3336 27.5132 14.8356 26.3109C14.3376 25.1086 14.0813 23.8201 14.0813 22.5187C14.0719 17.0812 18.5157 12.6563 23.9626 12.6563Z" fill="#FFFF00"/>
<path fill-rule="evenodd" clip-rule="evenodd" d="M30.9432 15.5603C29.0869 13.718 26.5777 12.6843 23.9625 12.6844C18.5311 12.6844 14.1 17.0969 14.1094 22.5187L14.1094 22.5187C14.1094 23.8164 14.365 25.1013 14.8615 26.3001C15.3581 27.499 16.086 28.5883 17.0035 29.5058C17.9211 30.4234 19.0104 31.1512 20.2092 31.6478C21.4081 32.1444 22.693 32.4 23.9906 32.4C25.2882 32.4 26.5732 32.1444 27.772 31.6478C28.9709 31.1512 30.0602 30.4234 30.9777 29.5058C31.8953 28.5883 32.6231 27.499 33.1197 26.3001C33.6163 25.1013 33.8719 23.8164 33.8719 22.5188C33.8521 19.9037 32.7994 17.4024 30.9432 15.5603ZM23.9625 12.6281C26.5926 12.628 29.116 13.6677 30.9828 15.5203C32.8496 17.373 33.9083 19.8885 33.9281 22.5185V22.5187C33.9281 23.8237 33.6711 25.116 33.1717 26.3217C32.6723 27.5273 31.9403 28.6228 31.0175 29.5456C30.0947 30.4684 28.9992 31.2004 27.7935 31.6998C26.5879 32.1992 25.2956 32.4562 23.9906 32.4562C22.6856 32.4562 21.3934 32.1992 20.1877 31.6998C18.982 31.2004 17.8865 30.4684 16.9637 29.5456C16.041 28.6228 15.309 27.5273 14.8096 26.3217C14.3102 25.116 14.0531 23.8238 14.0531 22.5188C14.0437 17.0656 18.5002 12.6281 23.9625 12.6281ZM24.2711 13.65C22.084 13.6304 19.9598 14.3815 18.2711 15.7716C16.5337 17.2381 15.3279 19.368 15.1594 22.4349C15.2036 24.781 16.1199 27.0266 17.7298 28.7338L17.7304 28.7345L17.7304 28.7345C18.0883 29.1388 18.9335 29.8025 20.0446 30.3592C21.1554 30.9158 22.5289 31.364 23.9433 31.3406H23.9433C26.3148 31.304 28.5824 30.3609 30.2804 28.7049L30.2805 28.7047C31.4285 27.6034 32.8682 25.08 32.8594 22.2767C32.5878 19.9368 32.0733 18.3962 30.9064 16.9773C30.093 15.9911 29.0826 15.1857 27.9399 14.6128C26.7973 14.0399 25.5477 13.712 24.2711 13.65ZM32.8875 22.275L32.9154 22.2717C32.6432 19.925 32.1264 18.3722 30.9498 16.9415L30.9498 16.9415C30.1314 15.9493 29.1148 15.139 27.9651 14.5625C26.8153 13.986 25.5579 13.6561 24.2732 13.5938L24.2732 13.5937L24.2721 13.5937C22.0715 13.5739 19.9343 14.3296 18.2352 15.7283L18.235 15.7285C16.4851 17.2055 15.2723 19.3503 15.1032 22.4328C15.1031 22.4335 15.1031 22.4342 15.1031 22.4349C15.1473 24.7952 16.0691 27.0545 17.6886 28.7721C18.0527 29.1834 18.9043 29.8508 20.0194 30.4095C21.1352 30.9686 22.5179 31.4204 23.9442 31.3969C26.33 31.36 28.6112 30.4112 30.3195 28.7453C30.3195 28.7453 30.3195 28.7453 30.3195 28.7453L30.3 28.725L30.3196 28.7451C30.3196 28.7452 30.3195 28.7452 30.3195 28.7453" fill="black"/>
<path fill-rule="evenodd" clip-rule="evenodd" d="M23.9907 12.6094C29.447 12.6094 33.8907 17.0531 33.8907 22.5094C33.8907 27.9656 29.447 32.4094 24.0001 32.4094C18.5532 32.4094 14.1001 27.9656 14.1001 22.5094C14.1001 17.0531 18.5438 12.6094 24.0001 12.6094H23.9907ZM14.3063 22.5C14.3063 27.825 18.6845 32.1844 23.9907 32.1844C29.297 32.1844 33.6751 27.825 33.6751 22.5C33.6751 17.175 29.297 12.8156 23.9907 12.8156C18.6845 12.8156 14.3063 17.175 14.3063 22.5Z" fill="#FFFF00"/>
<path fill-rule="evenodd" clip-rule="evenodd" d="M23.9953 12.6375C18.5568 12.64 14.1281 17.0702 14.1281 22.5094C14.1281 27.9501 18.5687 32.3812 24 32.3812C29.4313 32.3812 33.8625 27.9501 33.8625 22.5094C33.8625 17.0702 29.4339 12.64 23.9953 12.6375ZM24.0006 12.5812C29.4678 12.5866 33.9188 17.0409 33.9188 22.5094C33.9188 27.9811 29.4625 32.4375 24 32.4375C18.5376 32.4375 14.0719 27.9812 14.0719 22.5094C14.0719 17.0409 18.5229 12.5866 23.9901 12.5812C23.9903 12.5812 23.9905 12.5812 23.9907 12.5812H24C24.0002 12.5812 24.0004 12.5812 24.0006 12.5812ZM14.2782 22.5C14.2782 17.1594 18.6689 12.7875 23.9907 12.7875C29.3124 12.7875 33.7032 17.1594 33.7032 22.5C33.7032 27.8406 29.3124 32.2125 23.9907 32.2125C18.6689 32.2125 14.2782 27.8406 14.2782 22.5ZM23.9907 12.8437C18.6999 12.8437 14.3344 17.1906 14.3344 22.5C14.3344 27.8094 18.6999 32.1562 23.9907 32.1562C29.2814 32.1562 33.6469 27.8094 33.6469 22.5C33.6469 17.1906 29.2814 12.8437 23.9907 12.8437Z" fill="black"/>
<path fill-rule="evenodd" clip-rule="evenodd" d="M24.0001 13.4344C26.4021 13.4418 28.7037 14.3993 30.4022 16.0978C32.1008 17.7964 33.0583 20.0979 33.0657 22.5C33.0583 24.903 32.1011 27.2055 30.4028 28.9055C28.7046 30.6055 26.403 31.5651 24.0001 31.575C19.0313 31.575 14.9344 27.4875 14.9344 22.5C14.9443 20.0987 15.9026 17.7986 17.6006 16.1006C19.2986 14.4026 21.5988 13.4443 24.0001 13.4344ZM15.1501 22.5C15.1501 27.375 19.1438 31.35 24.0001 31.35C28.8563 31.35 32.8501 27.3656 32.8501 22.5C32.8501 17.625 28.8563 13.65 24.0001 13.65C21.6559 13.6599 19.4106 14.5955 17.7531 16.253C16.0955 17.9106 15.1599 20.1559 15.1501 22.5Z" fill="#FFFF00"/>
<path fill-rule="evenodd" clip-rule="evenodd" d="M30.3823 16.1177C28.689 14.4245 26.3946 13.4699 24 13.4625C21.6062 13.4724 19.3132 14.4277 17.6204 16.1204C15.9277 17.8132 14.9724 20.1062 14.9625 22.5001C14.9625 27.472 19.0467 31.5468 23.9999 31.5469C26.3954 31.537 28.6898 30.5804 30.3829 28.8856C32.0758 27.1909 33.0301 24.8955 33.0375 22.5C33.0301 20.1054 32.0755 17.811 30.3823 16.1177ZM24 13.4344L24.0001 13.4062C26.4096 13.4137 28.7183 14.3742 30.4221 16.0779C32.1258 17.7817 33.0863 20.0904 33.0938 22.4999V22.5001C33.0863 24.9104 32.1262 27.2201 30.4226 28.9254C28.7191 30.6307 26.4105 31.5932 24.0001 31.6031H24C19.0157 31.6031 14.9062 27.503 14.9062 22.5L14.9063 22.4999C14.9162 20.0912 15.8774 17.7839 17.5807 16.0807C19.2839 14.3774 21.5912 13.4162 23.9999 13.4063L24 13.4344ZM24 13.6219C28.8717 13.6219 32.8781 17.6094 32.8781 22.5C32.8781 27.3812 28.8718 31.3781 24 31.3781C19.1283 31.3781 15.1219 27.3906 15.1219 22.5H15.15L15.1219 22.4999C15.1318 20.1483 16.0703 17.8959 17.7331 16.2331C19.3959 14.5703 21.6483 13.6318 23.9999 13.6219L24 13.6219ZM15.1781 22.5001C15.1782 27.3595 19.1593 31.3219 24 31.3219C28.8407 31.3219 32.8219 27.3501 32.8219 22.5C32.8219 17.6406 28.8408 13.6782 24.0001 13.6781C21.6634 13.688 19.4252 14.6206 17.7729 16.2729C16.1206 17.9252 15.188 20.1634 15.1781 22.5001Z" fill="black"/>
<path fill-rule="evenodd" clip-rule="evenodd" d="M24.4032 12.5625H23.55V32.4656H24.3938L24.4032 12.5625Z" fill="#FFFF00"/>
<path fill-rule="evenodd" clip-rule="evenodd" d="M23.522 12.5625C23.522 12.547 23.5346 12.5344 23.5501 12.5344H24.4032C24.4107 12.5344 24.4178 12.5373 24.4231 12.5426C24.4284 12.5479 24.4314 12.555 24.4313 12.5625L24.422 32.4656C24.422 32.4812 24.4094 32.4937 24.3938 32.4937H23.5501C23.5346 32.4937 23.522 32.4811 23.522 32.4656V12.5625ZM23.5782 12.5906V32.4375H24.3657L24.3751 12.5906H23.5782Z" fill="black"/>
<path fill-rule="evenodd" clip-rule="evenodd" d="M24.3094 12.45H24.5251V32.5781H24.3188V12.45H24.3094ZM23.4657 12.45H23.6907V32.5781H23.4751V12.45H23.4657Z" fill="#FFFF00"/>
<path fill-rule="evenodd" clip-rule="evenodd" d="M23.4375 12.45C23.4375 12.4345 23.4501 12.4219 23.4656 12.4219H23.6906C23.7062 12.4219 23.7187 12.4345 23.7187 12.45V32.5781C23.7187 32.5937 23.7062 32.6063 23.6906 32.6063H23.475C23.4595 32.6063 23.4469 32.5937 23.4469 32.5781V12.471C23.4411 12.4658 23.4375 12.4583 23.4375 12.45ZM23.5031 12.4781V32.55H23.6625V12.4781H23.5031ZM24.2812 12.45C24.2812 12.4345 24.2938 12.4219 24.3094 12.4219H24.525C24.5405 12.4219 24.5531 12.4345 24.5531 12.45V32.5781C24.5531 32.5937 24.5405 32.6063 24.525 32.6063H24.3187C24.3032 32.6063 24.2906 32.5937 24.2906 32.5781V12.471C24.2849 12.4658 24.2812 12.4583 24.2812 12.45ZM24.3469 12.4781V32.55H24.4969V12.4781H24.3469Z" fill="black"/>
<path fill-rule="evenodd" clip-rule="evenodd" d="M33.9001 22.8937V22.1625L33.3001 21.6L29.897 20.7L25.0032 20.2031L19.097 20.5031L14.897 21.4969L14.0532 22.125V22.8656L16.2001 21.9L21.3001 21.1031H26.2032L29.8032 21.4969L32.297 22.0969L33.9001 22.8937Z" fill="#FFFF00"/>
<path fill-rule="evenodd" clip-rule="evenodd" d="M25.0017 20.175C25.0031 20.175 25.0046 20.175 25.006 20.1751L29.8997 20.672C29.9012 20.6722 29.9027 20.6724 29.9041 20.6728L33.3072 21.5728C33.3117 21.574 33.3159 21.5763 33.3193 21.5795L33.9193 22.142C33.9249 22.1473 33.9282 22.1547 33.9282 22.1625V22.8937C33.9282 22.9035 33.9231 22.9125 33.9148 22.9176C33.9066 22.9228 33.8962 22.9233 33.8875 22.9189L32.2872 22.1235L29.7983 21.5246L26.2016 21.1312H21.3022L16.2081 21.9272L14.0647 22.8913C14.056 22.8952 14.0459 22.8944 14.0379 22.8892C14.0299 22.884 14.025 22.8752 14.025 22.8656V22.125C14.025 22.1161 14.0292 22.1077 14.0364 22.1024L14.8801 21.4743C14.8832 21.472 14.8867 21.4704 14.8904 21.4695L19.0904 20.4757C19.0921 20.4754 19.0938 20.4751 19.0955 20.475L25.0017 20.175ZM19.1009 20.5311L14.909 21.5229L14.0813 22.1391V22.8221L16.1885 21.8743C16.1908 21.8733 16.1932 21.8726 16.1957 21.8722L21.2957 21.0753C21.2971 21.0751 21.2986 21.075 21.3 21.075H26.2031C26.2036 21.075 26.204 21.075 26.2044 21.075C26.205 21.075 26.2056 21.0751 26.2062 21.0752L29.8062 21.4689C29.8074 21.469 29.8086 21.4692 29.8097 21.4695L32.3035 22.0695C32.3055 22.07 32.3075 22.0707 32.3094 22.0717L33.8719 22.8483V22.1747L33.286 21.6254L29.8919 20.7277L25.0024 20.2313L19.1009 20.5311Z" fill="black"/>
<path fill-rule="evenodd" clip-rule="evenodd" d="M24 20.9812C26.3344 20.9812 28.5937 21.1969 30.4031 21.5437C32.2594 21.9187 33.5625 22.3875 34.0125 22.9031V23.1656C33.4687 22.5094 31.7156 22.0406 30.3562 21.7594C28.575 21.4219 26.325 21.1969 23.9906 21.1969C21.5437 21.1969 19.2563 21.4406 17.4938 21.7781C16.0875 22.0594 14.2031 22.6219 13.9688 23.1656V22.8937C14.0906 22.5187 15.4969 21.9562 17.4656 21.5531C19.2375 21.2062 21.525 20.9812 23.9906 20.9812H24ZM24 20.1281C26.1469 20.1238 28.2899 20.3121 30.4031 20.6906C32.2594 21.0656 33.5625 21.5344 34.0125 22.0594V22.3125C33.4687 21.6656 31.7156 21.1875 30.3562 20.9156C28.575 20.5687 26.325 20.3531 23.9906 20.3531C21.8148 20.3462 19.6431 20.5408 17.5031 20.9344C16.1437 21.1875 14.1844 21.7687 13.9688 22.3125V22.05C14.1 21.675 15.525 21.0844 17.4656 20.7094C19.2469 20.3625 21.525 20.1281 24 20.1281ZM23.9437 15.7969C27.6281 15.7781 30.8438 16.3125 32.3156 17.0625L32.85 18C31.575 17.3062 28.1062 16.5937 23.9531 16.6875C20.5688 16.7156 16.95 17.0625 15.1406 18.0375L15.7781 16.9687C17.2688 16.1906 20.775 15.7969 23.9437 15.7969Z" fill="#FFFF00"/>
<path fill-rule="evenodd" clip-rule="evenodd" d="M28.9551 16.1692C27.5083 15.9444 25.7848 15.8156 23.9439 15.825C23.9439 15.825 23.9438 15.825 23.9438 15.825M28.9551 16.1692C30.3976 16.3933 31.563 16.7124 32.2954 17.0837L28.9551 16.1692ZM32.2954 17.0837L32.778 17.9304C32.1192 17.5961 30.9658 17.2631 29.4855 17.0207C27.9381 16.7673 26.0309 16.6125 23.9527 16.6594C22.2599 16.6734 20.5079 16.7672 18.9525 16.9795C17.4475 17.185 16.1239 17.5017 15.2159 17.9662L15.7982 16.99C16.5397 16.6052 17.7815 16.3139 19.2354 16.1189C20.693 15.9234 22.3604 15.825 23.9437 15.825M23.9437 15.7687C22.3583 15.7687 20.6883 15.8672 19.2279 16.0631C17.7685 16.2589 16.5151 16.5523 15.7652 16.9438C15.7605 16.9462 15.7567 16.9498 15.754 16.9543L15.1165 18.0231C15.11 18.0339 15.1116 18.0478 15.1204 18.0569C15.1291 18.0661 15.1429 18.0682 15.154 18.0622C16.0541 17.5772 17.407 17.2473 18.9601 17.0353C20.5125 16.8234 22.262 16.7297 23.9534 16.7156L23.9538 16.7156C26.0287 16.6688 27.9324 16.8233 29.4764 17.0762C31.0212 17.3292 32.2033 17.6801 32.8366 18.0247C32.8476 18.0307 32.8613 18.0286 32.8701 18.0197C32.8789 18.0107 32.8807 17.997 32.8745 17.9861L32.3401 17.0486C32.3374 17.0438 32.3333 17.0399 32.3284 17.0374C31.5885 16.6604 30.4132 16.3388 28.9637 16.1136C27.5137 15.8883 25.7872 15.7593 23.9437 15.7687ZM30.3979 20.7182C28.2864 20.34 26.1452 20.1519 24.0001 20.1562L24 20.1281V20.1562C21.5267 20.1562 19.2504 20.3905 17.471 20.737L17.471 20.737C16.502 20.9242 15.6623 21.1652 15.049 21.4058C14.7423 21.5262 14.4929 21.6462 14.3126 21.7589C14.2224 21.8152 14.15 21.8694 14.0966 21.9204C14.0447 21.9699 14.012 22.0151 13.9969 22.0549V22.2061C14.0265 22.1657 14.064 22.1258 14.1081 22.0865C14.1869 22.0164 14.2882 21.947 14.4069 21.8789C14.6442 21.7429 14.9535 21.6107 15.2976 21.4879C15.986 21.2424 16.8172 21.0335 17.498 20.9067L17.4981 20.9067C19.6397 20.5128 21.8132 20.3181 23.9908 20.325C26.3267 20.325 28.5785 20.5407 30.3617 20.888L30.3618 20.888C31.0421 21.0241 31.8216 21.2119 32.4995 21.4468C32.8384 21.5643 33.1525 21.6938 33.4163 21.8347C33.6502 21.9597 33.846 22.0945 33.9844 22.2391V22.0698C33.7623 21.8159 33.3324 21.5721 32.7253 21.3451C32.1133 21.1161 31.3251 20.9056 30.3979 20.7182ZM24 20.1C26.1486 20.0957 28.2932 20.2841 30.4081 20.6629L30.4087 20.663C31.3377 20.8507 32.1291 21.062 32.7451 21.2924C33.3599 21.5224 33.804 21.7728 34.0339 22.041C34.0383 22.0461 34.0407 22.0526 34.0407 22.0594V22.3125C34.0407 22.3243 34.0333 22.3349 34.0222 22.3389C34.0111 22.343 33.9986 22.3396 33.991 22.3306C33.8584 22.1728 33.6504 22.0237 33.3898 21.8844C33.1294 21.7452 32.8183 21.6169 32.4811 21.5C31.8066 21.2662 31.0299 21.079 30.3508 20.9432C28.5716 20.5967 26.3234 20.3812 23.9907 20.3812H23.9906C21.8165 20.3743 19.6465 20.5688 17.5083 20.962C16.8297 21.0884 16.0015 21.2966 15.3165 21.5409C14.9739 21.6631 14.6681 21.794 14.4348 21.9277C14.3182 21.9946 14.2205 22.0618 14.1455 22.1285C14.0704 22.1954 14.0197 22.2605 13.9949 22.3228C13.99 22.3354 13.9768 22.3426 13.9635 22.3401C13.9503 22.3376 13.9407 22.326 13.9407 22.3125V22.05C13.9407 22.0468 13.9412 22.0437 13.9423 22.0407C13.9607 21.9879 14.0009 21.934 14.0577 21.8797C14.1149 21.8252 14.1906 21.7688 14.2828 21.7112C14.4671 21.596 14.7199 21.4745 15.0284 21.3535C15.6456 21.1113 16.4887 20.8695 17.4603 20.6817C19.2435 20.3345 21.5234 20.1 24 20.1ZM23.9907 21.0094C21.5267 21.0094 19.2411 21.2342 17.4712 21.5807C16.4879 21.782 15.6458 22.023 15.0348 22.2602C14.7292 22.3788 14.4823 22.4961 14.3046 22.6066C14.2158 22.6619 14.1449 22.715 14.0928 22.7652C14.0422 22.814 14.0109 22.8587 13.9969 22.8984V23.0625C14.0803 22.9498 14.224 22.84 14.4066 22.7346C14.6403 22.5998 14.9435 22.4691 15.2823 22.347C15.9602 22.1026 16.7842 21.8913 17.4883 21.7505L17.4885 21.7505C19.2528 21.4126 21.5421 21.1687 23.9907 21.1687C26.3267 21.1687 28.5785 21.3939 30.3615 21.7317L30.362 21.7318C31.0422 21.8725 31.8217 22.0603 32.4995 22.2953C32.8384 22.4128 33.1525 22.5422 33.4163 22.6838C33.6502 22.8093 33.846 22.945 33.9844 23.0915V22.9137C33.7622 22.6643 33.3324 22.4229 32.7254 22.197C32.1132 21.9692 31.325 21.7587 30.3978 21.5713C28.5903 21.2248 26.3328 21.0094 24 21.0094H23.9907ZM17.4603 21.5255C19.2342 21.1782 21.5235 20.9531 23.9907 20.9531H24C26.336 20.9531 28.5972 21.1689 30.4085 21.5161L30.4087 21.5162C31.3377 21.7038 32.1291 21.9151 32.745 22.1443C33.3598 22.3731 33.8038 22.6212 34.0337 22.8846C34.0382 22.8897 34.0407 22.8963 34.0407 22.9031V23.1656C34.0407 23.1775 34.0332 23.188 34.0221 23.1921C34.0109 23.1961 33.9985 23.1927 33.9909 23.1835C33.8583 23.0235 33.6504 22.8732 33.3897 22.7334C33.1294 22.5937 32.8183 22.4653 32.4811 22.3484C31.8066 22.1147 31.03 21.9275 30.3508 21.7869C28.5714 21.4498 26.3233 21.225 23.9907 21.225C21.5456 21.225 19.2599 21.4686 17.4992 21.8057C16.797 21.9461 15.9758 22.1567 15.3014 22.3999C14.9641 22.5215 14.6643 22.6509 14.4348 22.7833C14.2036 22.9166 14.0493 23.0499 13.9946 23.1767C13.9893 23.189 13.9762 23.1958 13.9631 23.1931C13.95 23.1905 13.9407 23.1789 13.9407 23.1656V22.8937C13.9407 22.8908 13.9411 22.8878 13.9421 22.885C13.9593 22.832 13.9982 22.7784 14.0538 22.7248C14.1096 22.6709 14.184 22.6154 14.2749 22.5589C14.4567 22.4458 14.7072 22.327 15.0145 22.2077C15.6292 21.9691 16.4746 21.7273 17.46 21.5255L17.4603 21.5255Z" fill="black"/>
<path fill-rule="evenodd" clip-rule="evenodd" d="M24.0001 16.5656C25.9238 16.5332 27.8466 16.668 29.7469 16.9687C31.2469 17.25 32.6813 17.6625 32.8876 17.8875L33.0469 18.1687C32.5501 17.85 31.3032 17.4844 29.7094 17.1844C28.1157 16.8844 26.0813 16.7812 23.9907 16.7906C21.6188 16.7812 19.7719 16.9031 18.1969 17.1844C17.1112 17.3365 16.0571 17.6626 15.0751 18.15L15.2344 17.8594C15.7969 17.5781 16.6688 17.2312 18.1501 16.9594C19.7907 16.6594 21.6563 16.575 24.0001 16.5656ZM24.0001 15.7219C26.0063 15.7031 27.9938 15.8156 29.5407 16.0969C30.5429 16.2457 31.5128 16.5626 32.4094 17.0344L32.6438 17.4094C32.2501 16.9687 30.7688 16.5469 29.4469 16.3219C27.9094 16.05 26.0063 15.9469 24.0001 15.9281C22.1325 15.9115 20.2668 16.0494 18.4219 16.3406C17.4573 16.475 16.5205 16.7631 15.6469 17.1937L15.8532 16.8844C16.3969 16.6031 17.2782 16.3406 18.3844 16.125C20.2414 15.83 22.1199 15.692 24.0001 15.7125V15.7219ZM28.9126 26.625C27.2876 26.3437 25.6395 26.2181 23.9907 26.25C17.8501 26.325 15.8719 27.5156 15.6282 27.8719L15.1594 27.1219C16.7344 25.9969 20.0719 25.3594 24.0282 25.4156C26.0813 25.4531 27.8532 25.5937 29.3344 25.8844L28.9126 26.6344" fill="#FFFF00"/>
<path fill-rule="evenodd" clip-rule="evenodd" d="M18.3893 16.1527C17.2884 16.3673 16.4131 16.6279 15.8725 16.906L15.7277 17.1232C16.5771 16.7163 17.4845 16.4429 18.4177 16.3128C20.264 16.0214 22.1312 15.8833 24.0003 15.9L24.0003 15.9C26.007 15.9187 27.9119 16.0219 29.4517 16.2941C30.1136 16.4068 30.8157 16.5688 31.402 16.758C31.6951 16.8526 31.9599 16.9541 32.1764 17.0599C32.3088 17.1247 32.4242 17.1914 32.5171 17.2598L32.3896 17.0557C31.4976 16.5874 30.5331 16.2726 29.5365 16.1247L29.5356 16.1245L29.5356 16.1245C27.9911 15.8437 26.0056 15.7312 24.0003 15.75C23.9928 15.7501 23.9855 15.7471 23.9802 15.7418C23.9797 15.7414 23.9793 15.7409 23.9788 15.7404C22.1074 15.7212 20.2377 15.8591 18.3893 16.1527ZM24.0208 15.6935C24.0157 15.688 24.0084 15.6844 24.0003 15.6844C22.1186 15.6639 20.2385 15.802 18.38 16.0972L18.38 16.0972L18.379 16.0974C17.272 16.3131 16.3876 16.5763 15.8402 16.8594C15.836 16.8616 15.8324 16.8648 15.8297 16.8688L15.6235 17.1781C15.6164 17.1887 15.6173 17.2027 15.6257 17.2123C15.6341 17.2218 15.6479 17.2246 15.6593 17.219C16.5301 16.7896 17.4641 16.5025 18.4258 16.3685L18.4258 16.3685L18.4263 16.3684C20.2695 16.0775 22.1337 15.9396 23.9997 15.9562C26.0055 15.975 27.9068 16.0781 29.442 16.3496L29.4422 16.3496C30.1021 16.4619 30.8015 16.6234 31.3847 16.8115C31.6763 16.9056 31.9384 17.0062 32.1517 17.1105C32.3656 17.215 32.528 17.3221 32.6228 17.4281C32.6325 17.439 32.649 17.4406 32.6606 17.4319C32.6723 17.4231 32.6753 17.4068 32.6676 17.3945L32.4332 17.0195C32.4306 17.0152 32.4269 17.0118 32.4225 17.0095C31.5231 16.5363 30.5504 16.2184 29.5452 16.0691C28.0014 15.7885 26.0206 15.6758 24.0208 15.6935ZM29.7421 16.9965C27.8435 16.696 25.9224 16.5613 24.0005 16.5937L24 16.5656L24.0001 16.5937C21.6567 16.6031 19.7931 16.6875 18.1551 16.987C16.6832 17.2572 15.8151 17.6013 15.2548 17.8806L15.1424 18.0856C16.1042 17.6186 17.1333 17.3051 18.1924 17.1566C19.7696 16.875 21.6181 16.7531 23.9906 16.7625C26.0818 16.7531 28.1182 16.8562 29.7146 17.1567C30.5121 17.3068 31.2232 17.4735 31.7974 17.6425C32.3063 17.7924 32.7096 17.9447 32.97 18.0901L32.8647 17.9042C32.8417 17.8802 32.8009 17.8517 32.7415 17.8197C32.6809 17.787 32.6032 17.7518 32.5103 17.7147C32.3245 17.6404 32.08 17.5593 31.7945 17.4762C31.2237 17.3101 30.4912 17.1369 29.7421 16.9965ZM23.9997 16.5375C21.6557 16.5469 19.7881 16.6312 18.1449 16.9317L18.1449 16.9317C16.6612 17.204 15.7868 17.5517 15.2218 17.8342C15.2167 17.8368 15.2125 17.8408 15.2097 17.8458L15.0503 18.1365C15.0444 18.1472 15.0462 18.1606 15.0547 18.1695C15.0632 18.1783 15.0765 18.1806 15.0875 18.1752C16.0668 17.6891 17.118 17.364 18.2008 17.2122L18.2008 17.2122L18.2018 17.212C19.7745 16.9312 21.6195 16.8094 23.9905 16.8187H23.9908C26.0807 16.8094 28.113 16.9125 29.7042 17.212C30.5004 17.3619 31.2096 17.5281 31.7815 17.6965C32.3542 17.8651 32.7868 18.0353 33.0317 18.1924C33.0426 18.1994 33.0568 18.198 33.0662 18.1892C33.0756 18.1803 33.0777 18.1661 33.0713 18.1549L32.912 17.8736C32.9109 17.8718 32.9097 17.87 32.9082 17.8685C32.8792 17.8368 32.8308 17.8039 32.7682 17.7702C32.705 17.7361 32.6252 17.7 32.5311 17.6624C32.3431 17.5873 32.0966 17.5055 31.8102 17.4222C31.2373 17.2555 30.5028 17.0819 29.7521 16.9411L29.7521 16.9411L29.7513 16.941C27.8494 16.64 25.925 16.505 23.9997 16.5375ZM15.1973 27.1294L15.6306 27.8227C15.7103 27.7288 15.8796 27.599 16.1612 27.4537C16.479 27.2897 16.9429 27.1045 17.5907 26.9283C18.8861 26.576 20.9183 26.2594 23.9902 26.2219C23.9903 26.2219 23.9903 26.2219 23.9903 26.2219L23.9906 26.25L23.9901 26.2219C23.9901 26.2219 23.9902 26.2219 23.9902 26.2219C25.6358 26.19 27.2806 26.3149 28.9025 26.5947L28.888 26.6206C28.8827 26.6299 28.8834 26.641 28.8887 26.6494C27.2717 26.3707 25.6318 26.2464 23.9912 26.2781L23.991 26.2781C20.9223 26.3156 18.8951 26.6318 17.6054 26.9826C16.9606 27.158 16.5005 27.3419 16.187 27.5037C15.8722 27.6661 15.7081 27.8047 15.6513 27.8877C15.646 27.8956 15.637 27.9002 15.6275 27.9C15.6181 27.8998 15.6093 27.8948 15.6043 27.8868L15.1355 27.1368C15.1276 27.1242 15.1309 27.1076 15.143 27.099C15.9353 26.533 17.1681 26.0914 18.6955 25.7981C20.2235 25.5047 22.0489 25.3593 24.0285 25.3875L24.0286 25.3875C26.0826 25.425 27.8563 25.5657 29.3398 25.8568C29.3486 25.8585 29.3561 25.8644 29.3599 25.8726C29.3637 25.8808 29.3633 25.8903 29.3589 25.8981L28.937 26.6481C28.9294 26.6617 28.9122 26.6665 28.8987 26.6589C28.8945 26.6565 28.8912 26.6532 28.8887 26.6494M29.2908 25.9045L28.9025 26.5947L29.2908 25.9045ZM29.2908 25.9045C29.3035 25.907 29.3163 25.9095 29.329 25.912L29.3344 25.8844L29.3099 25.8706L29.2908 25.9045ZM29.2908 25.9045C27.8196 25.6194 26.0624 25.4809 24.0277 25.4437L24.0281 25.4156L24.0276 25.4437C24.0276 25.4437 24.0277 25.4437 24.0277 25.4437C22.0511 25.4156 20.2296 25.5608 18.7061 25.8534C17.1958 26.1434 15.9808 26.5777 15.1973 27.1294" fill="black"/>
<path fill-rule="evenodd" clip-rule="evenodd" d="M23.9626 26.1469C25.6688 26.175 27.3376 26.2406 28.9595 26.5406L28.847 26.7469C27.347 26.4656 25.7345 26.3719 23.972 26.3719C21.6938 26.3531 19.4063 26.5688 17.4095 27.1406C16.7813 27.3188 15.7407 27.7219 15.6282 28.0594L15.5157 27.8719C15.5532 27.6656 16.172 27.2531 17.3532 26.9344C19.6407 26.2781 21.7782 26.1563 23.9626 26.1469ZM24.0376 25.2844C25.8385 25.2825 27.6361 25.4394 29.4095 25.7531L29.2876 25.9688C27.5559 25.6511 25.7981 25.4973 24.0376 25.5094C21.7688 25.5094 19.3595 25.6781 17.1657 26.3156C16.4626 26.5219 15.2345 26.9719 15.197 27.3188L15.0845 27.1125C15.1032 26.7938 16.1626 26.3719 17.1188 26.1C19.322 25.4531 21.7407 25.2938 24.0376 25.2844Z" fill="#FFFF00"/>
<path fill-rule="evenodd" clip-rule="evenodd" d="M29.3653 25.7739C27.6063 25.4651 25.8236 25.3107 24.0376 25.3125C21.7416 25.3219 19.326 25.4812 17.1267 26.127L17.1265 26.127C16.6491 26.2628 16.1468 26.4357 15.7619 26.6142C15.5693 26.7035 15.4073 26.7936 15.2927 26.8805C15.2354 26.9239 15.1909 26.9659 15.1603 27.0057C15.132 27.0426 15.1169 27.0762 15.1132 27.1065L15.1893 27.2461C15.2021 27.2191 15.22 27.1925 15.2419 27.1664C15.2825 27.1181 15.3383 27.0697 15.4051 27.0218C15.5386 26.9261 15.7195 26.83 15.92 26.7388C16.3213 26.5565 16.8054 26.392 17.1577 26.2886L17.1578 26.2886C19.3552 25.65 21.7676 25.4812 24.0374 25.4812C25.793 25.4692 27.5459 25.6219 29.2729 25.9375L29.3653 25.7739ZM24.0375 25.2844L24.0375 25.2562C25.8401 25.2544 27.6393 25.4114 29.4143 25.7254C29.4233 25.727 29.4309 25.7329 29.4348 25.7411C29.4387 25.7494 29.4384 25.759 29.4339 25.767L29.312 25.9826C29.3061 25.993 29.2942 25.9986 29.2825 25.9964C27.5525 25.6791 25.7965 25.5254 24.0377 25.5375L24.0375 25.5375C21.7699 25.5375 19.3635 25.7062 17.1735 26.3426C16.8227 26.4455 16.3413 26.6091 15.9433 26.79C15.7442 26.8806 15.5671 26.9749 15.4378 27.0675C15.3732 27.1139 15.3215 27.1591 15.285 27.2026C15.2483 27.2463 15.2287 27.2861 15.2249 27.3218C15.2235 27.334 15.2144 27.3439 15.2024 27.3463C15.1903 27.3487 15.1781 27.343 15.1722 27.3322L15.0597 27.126C15.0572 27.1213 15.056 27.1161 15.0563 27.1108C15.0591 27.0634 15.081 27.0167 15.1157 26.9715C15.1503 26.9262 15.1991 26.8808 15.2587 26.8356C15.3779 26.7453 15.5441 26.6532 15.7382 26.5631C16.1267 26.383 16.6321 26.2091 17.111 26.073C19.3179 25.425 21.7397 25.2656 24.0374 25.2562L24.0375 25.2844ZM23.963 26.1187V26.1187C25.6694 26.1469 27.3402 26.2125 28.9645 26.513C28.9734 26.5146 28.9809 26.5204 28.9848 26.5285C28.9887 26.5367 28.9884 26.5462 28.9841 26.5541L28.8716 26.7603C28.8658 26.771 28.8537 26.7768 28.8417 26.7745C27.3441 26.4937 25.7335 26.4 23.9719 26.4L23.9717 26.4C21.6952 26.3813 19.4106 26.5968 17.4171 27.1677L17.4171 27.1677C17.1041 27.2564 16.6884 27.4012 16.3373 27.5657C16.1618 27.6479 16.0032 27.7347 15.882 27.8214C15.7594 27.9089 15.6799 27.993 15.6548 28.0683C15.6514 28.0787 15.6421 28.0861 15.6312 28.0873C15.6203 28.0885 15.6097 28.0833 15.604 28.0738L15.4915 27.8863C15.488 27.8805 15.4868 27.8735 15.488 27.8668C15.4991 27.8054 15.5512 27.7356 15.6338 27.6622C15.7176 27.5877 15.8373 27.5057 15.9919 27.4207C16.3014 27.2506 16.7535 27.0671 17.3456 26.9073C19.6367 26.25 21.7772 26.1281 23.9624 26.1187L23.963 26.1187ZM23.9624 26.175C21.779 26.1844 19.6446 26.3062 17.3609 26.9614L17.3605 26.9615L17.3605 26.9615C16.7714 27.1205 16.3236 27.3025 16.019 27.4699C15.8667 27.5537 15.7508 27.6334 15.6712 27.7042C15.5964 27.7707 15.5571 27.8262 15.5456 27.8671L15.6247 27.999C15.6678 27.923 15.7482 27.8478 15.8492 27.7756C15.9744 27.6862 16.1363 27.5977 16.3135 27.5148C16.6679 27.3487 17.0865 27.2029 17.4017 27.1136C19.4019 26.5407 21.6923 26.325 23.972 26.3437C25.7275 26.3437 27.3353 26.4367 28.832 26.7155L28.9161 26.5613C27.3088 26.2677 25.6549 26.2029 23.9624 26.175Z" fill="black"/>
<path fill-rule="evenodd" clip-rule="evenodd" d="M32.7563 27.2344L32.0251 28.3875L29.8969 26.5031L24.4032 22.8L18.1969 19.3969L14.9813 18.3L15.6657 17.025L15.9001 16.9031L17.8969 17.4L24.4969 20.8031L28.3032 23.2031L31.5001 25.5L32.8032 27L32.7563 27.2344Z" fill="#FFFF00"/>
<path fill-rule="evenodd" clip-rule="evenodd" d="M15.887 16.8782C15.8931 16.875 15.9001 16.8742 15.9068 16.8758L17.9037 17.3727C17.9058 17.3732 17.9078 17.374 17.9098 17.375L24.5098 20.7781C24.5105 20.7785 24.5112 20.7789 24.5119 20.7793L28.3181 23.1793C28.3186 23.1796 28.3191 23.18 28.3195 23.1803L31.5164 25.4772C31.5182 25.4784 31.5198 25.4799 31.5212 25.4816L32.8244 26.9816C32.8301 26.9881 32.8324 26.997 32.8307 27.0055L32.7838 27.2399C32.7831 27.2433 32.7819 27.2465 32.78 27.2494L32.0488 28.4026C32.0443 28.4095 32.0371 28.4142 32.0289 28.4153C32.0208 28.4165 32.0125 28.414 32.0064 28.4086L29.8796 26.5254L24.3885 22.824L18.1855 19.4227L14.9722 18.3266C14.9644 18.324 14.9581 18.318 14.9551 18.3103C14.9521 18.3026 14.9526 18.294 14.9565 18.2867L15.6408 17.0117C15.6435 17.0067 15.6476 17.0027 15.6526 17L15.887 16.8782ZM15.9035 16.933L15.6863 17.0459L15.0217 18.2841L18.206 19.3703C18.2075 19.3708 18.209 19.3714 18.2104 19.3722L24.4166 22.7753C24.4174 22.7758 24.4181 22.7762 24.4188 22.7767L29.9126 26.4798C29.9136 26.4805 29.9146 26.4813 29.9155 26.4821L32.0189 28.3446L32.7297 27.2237L32.7728 27.008L31.4809 25.5209L28.2874 23.2265L24.4829 20.8276L17.8869 17.4265L15.9035 16.933Z" fill="black"/>
<path fill-rule="evenodd" clip-rule="evenodd" d="M14.8688 18.3281C15.4313 17.9531 19.5751 19.7906 23.9251 22.4156C28.2469 25.0406 32.3907 28.0031 32.0157 28.5563L31.8938 28.7531L31.8376 28.8C31.8469 28.7906 31.9126 28.7063 31.8376 28.5094C31.6501 27.9 28.7063 25.5563 23.8407 22.6125C19.0876 19.7906 15.1313 18.0844 14.7469 18.5719L14.8688 18.3281ZM32.9063 27.225C33.2626 26.5125 29.4188 23.6156 24.6469 20.7938C19.7719 18.0281 16.2469 16.3969 15.6001 16.8844L15.4688 17.1563C15.4688 17.1656 15.4688 17.1375 15.5063 17.1094C15.6188 17.0156 15.8157 17.0156 15.9001 17.0156C17.0063 17.0344 20.1657 18.4875 24.6001 21.0281C26.5501 22.1531 32.8126 26.1844 32.7844 27.3094C32.7844 27.4031 32.7938 27.4219 32.7563 27.4781L32.9157 27.2344L32.9063 27.225Z" fill="#FFFF00"/>
<path fill-rule="evenodd" clip-rule="evenodd" d="M18.5492 17.5934C20.122 18.2866 22.223 19.3863 24.6608 20.7693L24.6612 20.7695C27.0478 22.1809 29.2027 23.6112 30.7168 24.7781C31.4737 25.3615 32.0713 25.8797 32.4577 26.2973C32.6508 26.5059 32.7923 26.6907 32.8743 26.8468C32.9508 26.9924 32.9791 27.12 32.9395 27.2195C32.9452 27.2286 32.9453 27.2405 32.9392 27.2498L32.7833 27.4881C32.7822 27.4899 32.7809 27.4918 32.7797 27.4937C32.7711 27.5066 32.7537 27.5101 32.7408 27.5016C32.7278 27.4931 32.7242 27.4757 32.7327 27.4627L32.7328 27.4625C32.734 27.4608 32.7351 27.4592 32.7361 27.4576C32.7504 27.4352 32.7547 27.4215 32.7564 27.405C32.7574 27.3951 32.7574 27.3837 32.7571 27.3679C32.7568 27.3525 32.7563 27.3332 32.7563 27.3094L32.7563 27.3087C32.7579 27.2447 32.737 27.1677 32.6933 27.0782C32.6496 26.9889 32.5841 26.8891 32.4986 26.78C32.3277 26.5617 32.0791 26.3088 31.7728 26.0324C31.1604 25.4798 30.3203 24.836 29.4176 24.1916C27.6125 22.9031 25.5602 21.6146 24.586 21.0525C22.3692 19.7824 20.4716 18.7844 18.9902 18.1017C18.2495 17.7603 17.6132 17.498 17.0934 17.3198C16.573 17.1415 16.1717 17.0484 15.8998 17.0438C15.8575 17.0438 15.7893 17.0438 15.7181 17.0551C15.6462 17.0665 15.5748 17.0889 15.5243 17.131C15.5239 17.1313 15.5235 17.1316 15.5231 17.1319C15.5082 17.1431 15.5015 17.1536 15.4986 17.1595C15.4971 17.1624 15.4965 17.1644 15.496 17.1657C15.496 17.1659 15.4956 17.1671 15.4952 17.1681C15.4951 17.1684 15.4942 17.1707 15.4926 17.1732C15.492 17.1741 15.4889 17.179 15.483 17.1824C15.4793 17.1846 15.4732 17.1869 15.4656 17.186C15.4579 17.1852 15.4523 17.1814 15.4489 17.178C15.4436 17.1727 15.442 17.1667 15.4417 17.1656C15.4417 17.1656 15.4417 17.1656 15.4417 17.1655C15.4412 17.1636 15.441 17.162 15.4409 17.1614C15.4407 17.16 15.4407 17.1588 15.4407 17.1584C15.4406 17.1576 15.4406 17.1566 15.4406 17.1563C15.4406 17.152 15.4416 17.1478 15.4434 17.144L15.5747 16.8722C15.5766 16.8681 15.5795 16.8646 15.5831 16.8619C15.6715 16.7953 15.805 16.7674 15.9751 16.7708C16.1459 16.7743 16.3581 16.8093 16.6079 16.8734C17.1077 17.0016 17.763 17.2469 18.5492 17.5934ZM32.8128 27.3402L32.8806 27.2366C32.8772 27.229 32.8772 27.2201 32.8811 27.2124C32.9192 27.1362 32.9039 27.0241 32.8245 26.8729C32.7458 26.7232 32.6082 26.5427 32.4164 26.3355C32.0332 25.9213 31.4384 25.4053 30.6824 24.8227C29.1708 23.6576 27.018 22.2286 24.6328 20.8181C22.1957 19.4355 20.0967 18.3369 18.5266 17.6449C17.7413 17.2988 17.0893 17.0549 16.5939 16.9279C16.3462 16.8644 16.1387 16.8304 15.9739 16.8271C15.8124 16.8239 15.696 16.8503 15.6223 16.9029L15.5531 17.0461C15.6026 17.0217 15.6577 17.0078 15.7093 16.9996C15.7853 16.9875 15.8574 16.9875 15.8996 16.9875H15.9005C16.1817 16.9923 16.59 17.0879 17.1116 17.2666C17.6339 17.4456 18.272 17.7088 19.0137 18.0506C20.4972 18.7343 22.3964 19.7332 24.614 21.0037C25.5898 21.5667 27.6437 22.8563 29.4503 24.1459C30.3536 24.7906 31.1957 25.4359 31.8105 25.9906C32.1178 26.268 32.3691 26.5234 32.5429 26.7453C32.6298 26.8563 32.6978 26.9595 32.7438 27.0534C32.7895 27.147 32.8143 27.2332 32.8125 27.3097C32.8125 27.3209 32.8126 27.331 32.8128 27.3402ZM14.8904 18.3477L14.8196 18.4893C14.8302 18.4853 14.8413 18.4818 14.8529 18.4787C14.9078 18.4642 14.9753 18.4589 15.054 18.4617C15.2114 18.4673 15.4185 18.5056 15.6689 18.5736C16.1701 18.7096 16.8507 18.966 17.6668 19.3254C19.2994 20.0444 21.4777 21.177 23.855 22.5883L23.8552 22.5884C26.2886 24.0607 28.2418 25.3831 29.6103 26.4139C30.2945 26.9292 30.8329 27.372 31.2123 27.7243C31.4019 27.9004 31.5522 28.0543 31.6611 28.1837C31.769 28.3117 31.8387 28.4184 31.8641 28.5002C31.8936 28.5779 31.9024 28.6399 31.901 28.688L31.9923 28.5405C32.0102 28.514 32.0163 28.4785 32.0065 28.4306C31.9966 28.3824 31.971 28.3242 31.929 28.256C31.8449 28.1199 31.6988 27.9504 31.4977 27.7526C31.0958 27.3575 30.4792 26.8542 29.7149 26.2855C28.1865 25.1483 26.0709 23.7519 23.9104 22.4397C21.7362 21.1277 19.6138 20.0126 17.965 19.2725C17.1406 18.9025 16.4352 18.6264 15.9013 18.4664C15.6343 18.3863 15.4111 18.3356 15.2379 18.3164C15.1513 18.3068 15.0779 18.3052 15.0183 18.3114C14.9623 18.3172 14.9201 18.3298 14.8904 18.3477ZM14.8688 18.3281L14.8532 18.3047C14.8936 18.2778 14.9478 18.2622 15.0124 18.2554C15.0774 18.2486 15.155 18.2506 15.2441 18.2605C15.4221 18.2802 15.6489 18.332 15.9175 18.4125C16.4547 18.5736 17.1626 18.8507 17.9881 19.2212C19.6393 19.9624 21.7637 21.0786 23.9395 22.3916C26.1009 23.7043 28.2182 25.1018 29.7484 26.2403C30.5134 26.8095 31.1325 27.3146 31.5372 27.7125C31.7393 27.9113 31.8892 28.0845 31.9768 28.2265C32.0206 28.2974 32.0499 28.3621 32.0616 28.4193C32.0734 28.4767 32.0679 28.5289 32.0393 28.5715L31.9177 28.7679C31.9161 28.7705 31.9141 28.7728 31.9118 28.7747L31.8555 28.8216C31.844 28.8312 31.8269 28.8301 31.8167 28.819C31.8066 28.8079 31.807 28.7908 31.8176 28.7801C31.8178 28.7799 31.8219 28.7753 31.827 28.7655C31.832 28.7557 31.8378 28.7408 31.8414 28.7202C31.8486 28.6791 31.8472 28.614 31.8112 28.5194C31.811 28.5188 31.8108 28.5182 31.8106 28.5177C31.789 28.4473 31.7257 28.3477 31.6181 28.2199C31.5112 28.0929 31.3627 27.9408 31.174 27.7655C30.7966 27.415 30.2598 26.9735 29.5764 26.4588C28.2098 25.4294 26.2583 24.1081 23.8262 22.6366C21.4503 21.2261 19.2741 20.0947 17.6441 19.3769C16.829 19.018 16.1514 18.7628 15.6542 18.6279C15.4054 18.5604 15.2031 18.5233 15.052 18.5179C14.9765 18.5152 14.915 18.5205 14.8673 18.5331C14.8197 18.5457 14.788 18.5652 14.769 18.5893C14.76 18.6006 14.744 18.6034 14.7318 18.5956C14.7196 18.5879 14.7153 18.5722 14.7217 18.5593L14.8436 18.3156L14.8688 18.3281Z" fill="black"/>
<path d="M18.0601 23.6032C18.0615 24.3794 18.217 25.1477 18.5174 25.8635C18.8178 26.5793 19.2571 27.2284 19.8101 27.7732C20.3563 28.3278 21.0068 28.7688 21.7242 29.0709C22.4416 29.373 23.2117 29.5301 23.9901 29.5332C25.5654 29.5331 27.0762 28.9072 28.1901 27.7932C28.7411 27.2453 29.1784 26.5941 29.477 25.8767C29.7756 25.1594 29.9296 24.3902 29.9301 23.6132V15.6932L18.0601 15.6732V23.6032Z" fill="white"/>
<path fill-rule="evenodd" clip-rule="evenodd" d="M18.025 15.6381L29.9651 15.6582V23.6132C29.9646 24.3948 29.8097 25.1686 29.5093 25.8902C29.2089 26.6118 28.769 27.2669 28.2148 27.818C28.2148 27.818 28.2148 27.818 28.2148 27.818M19.7853 27.798C20.3347 28.3558 20.989 28.7994 21.7106 29.1032C22.4322 29.407 23.2069 29.5651 23.9899 29.5682H23.99C25.5746 29.5681 27.0943 28.9385 28.2148 27.818M19.7853 27.798C19.2291 27.2499 18.7872 26.597 18.4851 25.8771C18.1829 25.157 18.0265 24.3842 18.025 23.6033L18.025 15.6381M18.095 23.6032C18.0965 24.3748 18.251 25.1385 18.5496 25.85C18.8482 26.5615 19.285 27.2067 19.8346 27.7483L19.835 27.7487C20.3779 28.3 21.0246 28.7384 21.7377 29.0387C22.4509 29.3389 23.2164 29.4951 23.9902 29.4982C25.5562 29.4981 27.058 28.8759 28.1653 27.7685L28.1654 27.7684C28.7131 27.2238 29.1478 26.5764 29.4447 25.8633C29.7415 25.1502 29.8946 24.3856 29.8951 23.6132V15.7281L18.095 15.7082V23.6032Z" fill="black"/>
<path d="M18.28 23.6132C18.2821 24.3578 18.4317 25.0947 18.72 25.7812C19.0084 26.4677 19.4298 27.0904 19.96 27.6132C21.0247 28.6834 22.4704 29.2876 23.98 29.2932C25.487 29.294 26.9327 28.697 28.0001 27.6332C28.5285 27.1096 28.9481 26.4865 29.2347 25.8C29.5213 25.1135 29.6693 24.3771 29.6701 23.6332V15.9332H18.3V23.6132M27.4001 18.2432V23.1332L27.3901 23.6432C27.3934 24.0899 27.3066 24.5328 27.1348 24.9452C26.9629 25.3575 26.7096 25.731 26.3901 26.0432C25.7541 26.6813 24.8909 27.041 23.99 27.0432C23.05 27.0432 22.22 26.6432 21.6 26.0232C20.9619 25.3873 20.6022 24.5241 20.6 23.6232V18.2232L27.4001 18.2432Z" fill="#FF0000"/>
<path fill-rule="evenodd" clip-rule="evenodd" d="M18.275 15.9082H29.695V23.6332C29.6942 24.3805 29.5456 25.1202 29.2577 25.8097C28.9698 26.4992 28.5484 27.125 28.0177 27.6509C26.9457 28.7195 25.4936 29.3191 23.98 29.3182C22.4638 29.3127 21.0117 28.7058 19.9423 27.6309C19.4098 27.1058 18.9866 26.4804 18.697 25.7909C18.4073 25.1013 18.2571 24.3612 18.255 23.6133L18.28 23.6132H18.275V15.9082ZM18.305 23.6132C18.3071 24.3545 18.456 25.0881 18.7431 25.7716C19.0301 26.455 19.4497 27.0749 19.9776 27.5954L19.9777 27.5956C21.0377 28.6612 22.4771 29.2627 23.9801 29.2682C25.4804 29.2691 26.9198 28.6747 27.9824 27.6155C28.5085 27.0942 28.9262 26.4739 29.2116 25.7904C29.4969 25.107 29.6442 24.3738 29.645 23.6332V15.9582H18.325V23.6132H18.305ZM20.575 18.1981L27.425 18.2183V23.1332L27.425 23.1337L27.415 23.643C27.415 23.6431 27.415 23.6433 27.415 23.6434C27.4184 24.0934 27.3309 24.5394 27.1578 24.9548C26.9847 25.3703 26.7296 25.7465 26.4076 26.061C25.767 26.7038 24.8975 27.066 23.9901 27.0682C23.0427 27.0682 22.2065 26.665 21.5824 26.0409C20.9395 25.4003 20.5772 24.5308 20.575 23.6233V18.1981ZM20.625 18.2483V23.6232C20.6272 24.5174 20.9842 25.3743 21.6177 26.0055C22.2336 26.6214 23.0574 27.0182 23.99 27.0182C24.8842 27.016 25.7411 26.659 26.3723 26.0256L26.3726 26.0254C26.6897 25.7155 26.9411 25.3449 27.1117 24.9356C27.2822 24.5263 27.3684 24.0868 27.365 23.6434L27.365 23.6427L27.375 23.1332V18.2681L20.625 18.2483Z" fill="black"/>
<path d="M19.02 17.9432C19.03 17.3932 19.42 17.2632 19.42 17.2632C19.43 17.2632 19.85 17.4032 19.85 17.9532H19.02" fill="#FFFF00"/>
<path d="M18.68 17.2732L18.61 17.9032H19.03C19.03 17.3832 19.43 17.3032 19.43 17.3032C19.44 17.3032 19.83 17.4132 19.84 17.9032H20.26L20.18 17.2632H18.68V17.2732ZM18.58 17.9132H20.28C20.31 17.9132 20.34 17.9432 20.34 17.9832C20.34 18.0332 20.31 18.0632 20.28 18.0632H18.58C18.55 18.0632 18.52 18.0332 18.52 17.9832C18.52 17.9432 18.55 17.9132 18.59 17.9132H18.58Z" fill="#FFFF00"/>
<path fill-rule="evenodd" clip-rule="evenodd" d="M18.655 17.2382H20.2021L20.2833 17.8882C20.3281 17.8903 20.365 17.9331 20.365 17.9832C20.365 18.042 20.3283 18.0882 20.28 18.0882H18.58C18.5317 18.0882 18.495 18.042 18.495 17.9832C18.495 17.9327 18.5312 17.8934 18.58 17.8886V17.8882H18.5865L18.655 17.2718V17.2382ZM18.7035 17.2882L18.6379 17.8782H19.0053C19.0115 17.6259 19.1116 17.476 19.2138 17.3891C19.2662 17.3446 19.3185 17.3171 19.3579 17.3007C19.3705 17.2955 19.3817 17.2913 19.3913 17.2882H18.7035ZM19.43 17.3032C19.4287 17.2965 19.4277 17.2917 19.427 17.2882L19.43 17.3032ZM19.4666 17.2882C19.4779 17.2923 19.4918 17.298 19.5075 17.3054C19.5474 17.3242 19.5995 17.3545 19.6516 17.4007C19.7529 17.4907 19.8531 17.6399 19.8642 17.8782H20.2317L20.1579 17.2882H19.4666ZM19.8146 17.8882C19.8059 17.6599 19.7115 17.5208 19.6184 17.4381C19.5705 17.3956 19.5226 17.3678 19.4862 17.3506C19.468 17.342 19.4528 17.3362 19.442 17.3325C19.437 17.3308 19.4329 17.3296 19.4301 17.3288C19.4276 17.3294 19.4241 17.3303 19.4198 17.3316C19.4097 17.3346 19.3949 17.3394 19.3771 17.3469C19.3415 17.3617 19.2938 17.3867 19.2462 17.4272C19.1536 17.5059 19.0589 17.6449 19.0551 17.8882H19.8146ZM18.59 17.9382C18.5638 17.9382 18.545 17.957 18.545 17.9832C18.545 18.0243 18.5683 18.0382 18.58 18.0382H20.28C20.2917 18.0382 20.315 18.0243 20.315 17.9832C20.315 17.9544 20.2938 17.9382 20.28 17.9382H18.59Z" fill="black"/>
<path d="M19.1999 17.9032C19.1999 17.5732 19.4299 17.4832 19.4299 17.4832C19.4299 17.4832 19.6599 17.5832 19.6599 17.9032H19.1999ZM18.6199 17.0032H20.2499C20.2799 17.0032 20.3099 17.0432 20.3099 17.0832C20.3099 17.1132 20.2799 17.1432 20.2499 17.1432H18.6199C18.5899 17.1432 18.5599 17.1132 18.5599 17.0732C18.5599 17.0432 18.5899 17.0132 18.6199 17.0132V17.0032ZM19.2399 18.0532H20.1999C20.2299 18.0532 20.2599 18.0832 20.2599 18.1232C20.2599 18.1632 20.2299 18.1932 20.1999 18.1932H18.6499C18.6099 18.1932 18.5899 18.1632 18.5899 18.1232C18.5899 18.0832 18.6099 18.0532 18.6499 18.0532H19.2399ZM19.7399 16.9932H19.8599V17.0732H19.9499V16.9932H20.0799V17.0832H20.1699V16.9832H20.2899V17.1832C20.2899 17.2232 20.2699 17.2432 20.2399 17.2432H19.7999C19.7699 17.2432 19.7399 17.2232 19.7399 17.1932V16.9932ZM20.1999 17.2632L20.2299 17.9032H19.7999L19.8299 17.2532H20.1999" fill="#FFFF00"/>
<path fill-rule="evenodd" clip-rule="evenodd" d="M20.145 16.9582H20.315V17.0185C20.3271 17.0367 20.335 17.0596 20.335 17.0832C20.335 17.103 20.3267 17.1213 20.315 17.1354V17.1832C20.315 17.2071 20.3091 17.2287 20.2951 17.2447C20.2808 17.261 20.2609 17.2682 20.24 17.2682H20.2253L20.2562 17.9282H19.7739L19.8043 17.2682H19.8C19.7798 17.2682 19.7593 17.2615 19.7434 17.2492C19.7273 17.2366 19.715 17.2173 19.715 17.1932V17.1682H18.62C18.5738 17.1682 18.535 17.1245 18.535 17.0732C18.535 17.0501 18.5463 17.029 18.5611 17.0143C18.5703 17.0051 18.582 16.9972 18.595 16.9926V16.9782H19.715V16.9682H19.885V16.9782H19.925V16.9682H20.105V16.9782H20.145V16.9582ZM20.145 17.0282H20.105V17.0582H20.145V17.0282ZM20.055 17.0282V17.1082H20.195V17.0282H20.25C20.2531 17.0282 20.2587 17.0301 20.265 17.0361V17.1135C20.2598 17.1167 20.2545 17.1182 20.25 17.1182H19.765V17.0282H19.835V17.0982H19.975V17.0282H20.055ZM19.925 17.0282H19.885V17.0482H19.925V17.0282ZM19.715 17.0282H18.645V17.0382H18.62C18.6132 17.0382 18.6042 17.0419 18.5965 17.0496C18.5887 17.0574 18.585 17.0663 18.585 17.0732C18.585 17.1019 18.6063 17.1182 18.62 17.1182H19.715V17.0282ZM19.765 17.1682V17.1932C19.765 17.1991 19.7678 17.2048 19.7741 17.2097C19.7808 17.2149 19.7903 17.2182 19.8 17.2182H20.24C20.2492 17.2182 20.2543 17.2153 20.2575 17.2117C20.261 17.2077 20.265 17.1993 20.265 17.1832V17.1666C20.2602 17.1676 20.2552 17.1682 20.25 17.1682H19.765ZM19.8539 17.2782L19.8262 17.8782H20.2038L20.1757 17.2782H19.8539ZM19.44 17.4603L19.43 17.4832L19.4209 17.4599L19.4305 17.4562L19.44 17.4603ZM19.4296 17.5109C19.4241 17.5137 19.4165 17.5179 19.4074 17.5236C19.3875 17.5362 19.3606 17.5563 19.3336 17.5862C19.2829 17.6424 19.2309 17.7341 19.2255 17.8782H19.6345C19.629 17.739 19.5772 17.6472 19.5263 17.5898C19.4992 17.5592 19.4722 17.538 19.4521 17.5246C19.4429 17.5185 19.4352 17.514 19.4296 17.5109ZM19.4209 17.4599C19.4209 17.4599 19.4209 17.4599 19.43 17.4832C19.44 17.4603 19.44 17.4603 19.44 17.4603L19.4402 17.4603L19.4404 17.4604L19.4411 17.4608C19.4417 17.461 19.4425 17.4614 19.4435 17.4619C19.4454 17.4628 19.4482 17.4642 19.4517 17.4661C19.4586 17.4698 19.4683 17.4753 19.4798 17.483C19.5029 17.4984 19.5333 17.5222 19.5638 17.5566C19.6249 17.6258 19.685 17.7366 19.685 17.9032V17.9282H19.175V17.9032C19.175 17.7317 19.235 17.6208 19.2965 17.5527C19.327 17.5188 19.3576 17.4959 19.3808 17.4813C19.3923 17.474 19.4021 17.4687 19.4091 17.4653C19.4126 17.4636 19.4154 17.4623 19.4174 17.4614C19.4184 17.461 19.4192 17.4606 19.4198 17.4604L19.4205 17.4601L19.4208 17.46L19.4209 17.4599ZM18.6246 18.0888C18.6191 18.0956 18.615 18.107 18.615 18.1232C18.615 18.1394 18.6191 18.1508 18.6246 18.1576C18.6294 18.1636 18.6369 18.1682 18.65 18.1682H20.2C20.2138 18.1682 20.235 18.1519 20.235 18.1232C20.235 18.0945 20.2138 18.0782 20.2 18.0782H18.65C18.6369 18.0782 18.6294 18.0828 18.6246 18.0888ZM18.5855 18.0576C18.6007 18.0386 18.6231 18.0282 18.65 18.0282H20.2C20.2463 18.0282 20.285 18.0719 20.285 18.1232C20.285 18.1745 20.2463 18.2182 20.2 18.2182H18.65C18.6231 18.2182 18.6007 18.2078 18.5855 18.1888C18.571 18.1706 18.565 18.147 18.565 18.1232C18.565 18.0994 18.571 18.0758 18.5855 18.0576Z" fill="black"/>
<path d="M19.1 16.6631V17.0031H18.7V16.6631H19.1Z" fill="#FFFF00"/>
<path fill-rule="evenodd" clip-rule="evenodd" d="M18.675 16.6382H19.1251V17.0282H18.675V16.6382ZM18.725 16.6882V16.9782H19.0751V16.6882H18.725Z" fill="black"/>
<path d="M18.63 16.4032H18.75V16.5032H18.84V16.4032H18.96V16.5032H19.05V16.4032H19.17V16.6032C19.17 16.6432 19.15 16.6632 19.12 16.6632H18.69C18.6741 16.6632 18.6588 16.6569 18.6476 16.6456C18.6363 16.6344 18.63 16.6191 18.63 16.6032V16.4032Z" fill="#FFFF00"/>
<path fill-rule="evenodd" clip-rule="evenodd" d="M18.655 16.4282V16.6032C18.655 16.6125 18.6587 16.6214 18.6652 16.6279C18.6718 16.6345 18.6807 16.6382 18.69 16.6382H19.12C19.1292 16.6382 19.1343 16.6353 19.1374 16.6317C19.141 16.6277 19.145 16.6193 19.145 16.6032V16.4282H19.075V16.5282H18.935V16.4282H18.865V16.5282H18.725V16.4282H18.655ZM18.63 16.4032V16.3782H18.775V16.4782H18.815V16.3782H18.985V16.4782H19.025V16.3782H19.195V16.6032C19.195 16.6271 19.189 16.6487 19.175 16.6646C19.1607 16.681 19.1408 16.6882 19.12 16.6882H18.69C18.6674 16.6882 18.6458 16.6792 18.6299 16.6633C18.6139 16.6473 18.605 16.6257 18.605 16.6032V16.4032H18.63Z" fill="black"/>
<path d="M19.39 16.5632C19.39 16.5032 19.48 16.5032 19.48 16.5632V16.7232H19.39V16.5632Z" fill="black"/>
<path d="M18.86 16.7832C18.86 16.7232 18.94 16.7232 18.94 16.7832V16.9032H18.86V16.7832Z" fill="black"/>
<path d="M23.26 22.7432C23.2582 22.9543 23.3369 23.1581 23.48 23.3132C23.5468 23.3879 23.6285 23.4478 23.7197 23.4891C23.811 23.5305 23.9099 23.5523 24.01 23.5532C24.22 23.5532 24.41 23.4532 24.54 23.3132C24.6832 23.1581 24.7619 22.9543 24.76 22.7432V21.6632H23.26V22.7432Z" fill="#003399"/>
<path d="M23.6101 22.2232C23.6929 22.2232 23.7601 22.1561 23.7601 22.0732C23.7601 21.9904 23.6929 21.9232 23.6101 21.9232C23.5272 21.9232 23.4601 21.9904 23.4601 22.0732C23.4601 22.1561 23.5272 22.2232 23.6101 22.2232Z" fill="white"/>
<path d="M24.44 22.2232C24.5229 22.2232 24.59 22.1561 24.59 22.0732C24.59 21.9904 24.5229 21.9232 24.44 21.9232C24.3572 21.9232 24.29 21.9904 24.29 22.0732C24.29 22.1561 24.3572 22.2232 24.44 22.2232Z" fill="white"/>
<path d="M24.02 22.6232C24.1028 22.6232 24.17 22.556 24.17 22.4732C24.17 22.3903 24.1028 22.3232 24.02 22.3232C23.9372 22.3232 23.87 22.3903 23.87 22.4732C23.87 22.556 23.9372 22.6232 24.02 22.6232Z" fill="white"/>
<path d="M23.6101 23.0432C23.6929 23.0432 23.7601 22.9761 23.7601 22.8932C23.7601 22.8104 23.6929 22.7432 23.6101 22.7432C23.5272 22.7432 23.4601 22.8104 23.4601 22.8932C23.4601 22.9761 23.5272 23.0432 23.6101 23.0432Z" fill="white"/>
<path d="M24.44 23.0432C24.5229 23.0432 24.59 22.9761 24.59 22.8932C24.59 22.8104 24.5229 22.7432 24.44 22.7432C24.3572 22.7432 24.29 22.8104 24.29 22.8932C24.29 22.9761 24.3572 23.0432 24.44 23.0432Z" fill="white"/>
</g>
</g>
<defs>
<clipPath id="clip0_16_73214">
<rect width="60" height="45" rx="6" fill="white"/>
</clipPath>
<clipPath id="clip1_16_73214">
<rect width="60" height="45" fill="white"/>
</clipPath>
</defs>
</svg>
