<svg width="115" height="107" viewBox="0 0 115 107" fill="none" xmlns="http://www.w3.org/2000/svg">
<path d="M56.752 63.2047C59.7513 63.2047 62.1827 60.7537 62.1827 57.7303C62.1827 54.7068 59.7513 52.2559 56.752 52.2559C53.7527 52.2559 51.3213 54.7068 51.3213 57.7303C51.3213 60.7537 53.7527 63.2047 56.752 63.2047Z" fill="white"/>
<path d="M38.417 44.7233C41.4163 44.7233 43.8477 42.2723 43.8477 39.2488C43.8477 36.2254 41.4163 33.7744 38.417 33.7744C35.4177 33.7744 32.9863 36.2254 32.9863 39.2488C32.9863 42.2723 35.4177 44.7233 38.417 44.7233Z" fill="white"/>
<path d="M72.3931 50.7175C72.3931 53.0928 70.4856 55.0156 68.1293 55.0156C65.8179 55.0156 63.9777 53.1607 63.9553 50.7854C63.9328 48.4328 65.8628 46.4873 68.2191 46.4873C70.4631 46.4873 72.3931 48.4328 72.3931 50.7175Z" fill="white"/>
<path d="M45.2172 32.0098C42.9507 31.9872 41.0432 30.0417 41.0656 27.757C41.0881 25.3591 42.9955 23.4815 45.3518 23.5041C47.6857 23.5267 49.5259 25.4043 49.5034 27.757C49.481 30.1322 47.5959 32.0098 45.2172 32.0098Z" fill="white"/>
<path d="M63.9104 27.7112C63.8879 25.4264 65.7954 23.4584 68.0619 23.4357C70.4407 23.4131 72.3257 25.2907 72.3481 27.6886C72.3706 30.0412 70.5529 31.9188 68.219 31.9641C65.8627 32.0093 63.9328 30.0865 63.9104 27.7112Z" fill="white"/>
<path d="M45.2621 46.6008C47.7082 46.5782 49.5259 48.3653 49.5484 50.8084C49.5708 53.1158 47.6858 55.016 45.3968 55.016C42.9732 55.016 41.1554 53.2063 41.1106 50.7858C41.0881 48.4331 42.8834 46.6234 45.2621 46.6008Z" fill="white"/>
<path d="M24.7508 72.8871C24.7508 75.0587 23.0453 76.7553 20.8012 76.778C18.5571 76.8006 16.717 75.0587 16.6945 72.9097C16.6721 70.7832 18.5571 68.9961 20.8012 69.0188C23.0004 69.0188 24.7508 70.7154 24.7508 72.8871ZM22.6863 72.8418C22.6863 71.5976 21.856 70.7832 20.689 70.7832C19.5221 70.8059 18.7367 71.6881 18.7591 72.9323C18.7815 74.1539 19.6343 75.0361 20.7788 75.0135C21.9008 74.9909 22.7087 74.086 22.6863 72.8418Z" fill="white"/>
<path d="M25.6709 68.996C26.5685 68.996 27.3764 68.996 28.2067 68.996C29.5981 68.9734 30.8323 69.358 31.3933 70.7605C31.9768 72.2083 31.6177 73.4751 30.3611 74.4931C30.7425 75.1717 31.5504 76.5969 31.5504 76.5969L29.6429 76.5743L28.7004 74.8098H27.713V76.5969C27.713 76.5969 26.3666 76.5969 25.7158 76.5969C25.6709 74.1311 25.6709 71.6428 25.6709 68.996ZM27.6906 70.7831C27.6906 71.6428 27.6906 72.4571 27.6906 73.2489C29.1268 73.3168 29.6205 73.0001 29.6205 72.0047C29.6205 70.9867 29.1044 70.6474 27.6906 70.7831Z" fill="white"/>
<path d="M74.8389 68.996C75.7365 68.996 76.5444 68.996 77.3747 68.996C78.766 68.9734 80.0003 69.358 80.5613 70.7605C81.1448 72.2083 80.7857 73.4751 79.529 74.4931C79.9105 75.1717 80.7184 76.5969 80.7184 76.5969L78.8109 76.5743L77.8684 74.8098H76.881V76.5969C76.881 76.5969 75.5345 76.5969 74.8838 76.5969C74.8389 74.1311 74.8389 71.6428 74.8389 68.996ZM76.8586 70.7831C76.8586 71.6428 76.8586 72.4571 76.8586 73.2489C78.2948 73.3168 78.7885 73.0001 78.7885 72.0047C78.7885 70.9867 78.2723 70.6474 76.8586 70.7831Z" fill="white"/>
<path d="M67.0743 69.0412V76.6194H65.1893L65.1668 74.2894H62.4515V76.5968H60.6113V69.0186H62.4739V72.4797H65.0995V69.0412H67.0743Z" fill="white"/>
<path d="M91.4455 74.8549V76.5741H89.5156V68.9959C89.5156 68.9959 92.0066 68.928 93.2408 69.0864C94.5648 69.2674 95.4849 70.602 95.44 71.9593C95.3952 73.3166 94.52 74.4251 93.2184 74.7192C92.6798 74.8549 92.1412 74.8549 91.4455 74.8549ZM91.468 70.7378V73.113C92.8593 73.1583 93.3755 72.8416 93.3755 71.9367C93.3979 70.9866 92.8144 70.7151 91.468 70.7378Z" fill="white"/>
<path d="M37.7445 75.1488V76.5966H32.6279V69.041H37.7893V70.6698H34.5803V72.389H37.363V74.0178H34.5803V75.1036L37.7445 75.1488Z" fill="white"/>
<path d="M73.4925 75.1488V76.5966H68.376V69.041H73.5374V70.6698H70.3508V72.389H73.111V74.0178H70.3283V75.1036L73.4925 75.1488Z" fill="white"/>
<path d="M38.4619 75.4432C38.9107 75.0586 39.584 74.4931 39.8084 74.3121C40.504 74.9907 41.1997 75.2169 41.7607 75.1265C41.9627 75.1038 42.4115 74.9681 42.434 74.6062C42.4564 74.2668 42.0749 74.1311 41.9403 74.0406C41.7383 73.9049 41.3119 73.7918 41.0202 73.6787C39.2249 73 38.4619 71.6654 39.0454 70.2628C39.6064 68.9055 41.4241 68.34 42.9725 69.0639C43.3092 69.2222 43.5784 69.4711 43.9599 69.7425C43.556 70.195 43.2194 70.5795 42.8379 71.0093C42.7033 70.9188 41.5139 69.6294 40.9529 70.5795C40.504 71.3487 41.5139 71.6201 41.8954 71.8011C42.9277 72.2535 44.0048 72.5928 44.2966 73.9049C44.5883 75.2169 43.9599 76.3933 42.6584 76.7778C41.1099 77.2076 39.5166 76.7552 38.4619 75.4432Z" fill="white"/>
<path d="M84.8922 68.8379C86.1714 71.5299 88.5501 76.5971 88.5501 76.5971H86.7548L86.4631 75.9863L83.5682 75.9637L83.3438 76.5971H81.2119C81.2119 76.5971 83.5907 71.5751 84.8922 68.8379ZM84.0844 74.448H85.5206L84.8025 72.8193L84.0844 74.448Z" fill="white"/>
<path d="M11.1289 69.041C12.8344 69.041 14.4277 69.041 16.1108 69.041C16.1108 69.5387 16.1108 70.0137 16.1108 70.6245C15.1683 70.6245 14.1809 70.6245 13.1261 70.6245C13.1261 71.3484 13.1261 71.9366 13.1261 72.6152C14.0013 72.6152 14.8541 72.6152 15.7293 72.6152C15.7293 73.2034 15.7293 73.6558 15.7293 74.2666C14.8541 74.2666 14.0013 74.2666 13.0812 74.2666C13.0812 75.1036 13.0812 75.8049 13.0812 76.574C12.408 76.574 11.7797 76.574 11.1064 76.574C11.1289 74.1082 11.1289 71.6199 11.1289 69.041Z" fill="white"/>
<path d="M95.6641 69.0187L97.594 69.0413L99.3893 72.2084L101.185 68.9961L102.957 69.0413L100.422 73.724V76.6196H98.4243L98.4019 73.7466L95.6641 69.0187Z" fill="white"/>
<path d="M44.8584 69.041C44.8584 69.041 48.7182 69.041 50.693 69.041C50.693 69.5613 50.693 70.7376 50.693 70.7376H48.808V76.574H46.7883V70.7602H44.8584V69.041Z" fill="white"/>
<path d="M53.7227 69.041C53.7227 69.041 57.5825 69.041 59.5573 69.041C59.5573 69.5613 59.5573 70.7376 59.5573 70.7376H57.6723V76.574H55.6526V70.7602H53.7227V69.041Z" fill="white"/>
<path d="M55.0234 46.4873C56.1679 46.4873 57.2675 46.4873 58.4345 46.4873C58.4345 48.2065 58.4345 49.8579 58.4345 51.4867C57.3124 51.4867 56.2128 51.4867 55.0234 51.4867C55.0234 49.9032 55.0234 48.2518 55.0234 46.4873Z" fill="white"/>
<path d="M68.7798 40.9902C67.1416 40.9902 65.5483 40.9902 63.9102 40.9902C63.9102 39.8592 63.9102 38.7733 63.9102 37.5518C65.5035 37.5518 67.1192 37.5518 68.7798 37.5518C68.7798 38.6828 68.7798 39.7913 68.7798 40.9902Z" fill="white"/>
<path d="M49.5484 37.5967C49.5484 38.6825 49.5484 39.791 49.5484 40.9673C47.9326 40.9673 46.3169 40.9673 44.6338 40.9673C44.6338 39.8815 44.6338 38.8182 44.6338 37.5967C46.2495 37.5967 47.8653 37.5967 49.5484 37.5967Z" fill="white"/>
<path d="M58.4345 32.0324C57.2451 32.0324 56.1679 32.0324 55.0234 32.0324C55.0234 30.4037 55.0234 28.7297 55.0234 27.0557C56.1679 27.0557 57.2675 27.0557 58.4345 27.0557C58.4345 28.7297 58.4345 30.3584 58.4345 32.0324Z" fill="white"/>
<path d="M61.8457 80.1483H64.1122C64.965 80.1257 65.8402 80.3067 66.1992 81.1437C66.5807 82.0259 66.4012 82.9986 65.7504 83.4963C66.9847 84.1523 67.1193 85.5549 66.8725 86.2561C66.491 87.2967 65.8402 87.7039 64.2918 87.7039C63.5063 87.7039 62.7433 87.7039 61.8906 87.7039C61.8457 85.1929 61.8457 80.1483 61.8457 80.1483ZM62.6311 87.0253H64.0898C65.324 87.0253 65.7055 86.6181 65.8851 86.2335C66.0646 85.8489 66.1992 84.9893 65.7504 84.4916C65.4811 84.1976 65.0099 83.9487 64.0898 83.9487H62.6311C62.6311 84.9893 62.6311 87.0253 62.6311 87.0253ZM62.6087 83.3379L64.1122 83.3153C65.0772 83.3379 65.3016 83.1117 65.4811 82.7272C65.728 82.139 65.6831 81.7318 65.3689 81.3246C65.1221 81.0079 64.8528 80.8496 64.1347 80.8722H62.6311V83.3379H62.6087Z" fill="white"/>
<path d="M47.7981 84.3333H51.7926L51.8151 80.1709H52.5556V87.7265H51.7926V85.1929H47.8206V87.7265H47.0127V80.1709H47.7981V84.3333Z" fill="white"/>
<path d="M59.8714 85.2609C59.8714 86.9123 58.7269 87.7493 57.2009 87.7493C55.9891 87.7493 54.7099 87.048 54.7099 85.2835L54.6875 80.1711H55.4505V85.2609C55.4954 86.4599 56.2359 87.048 57.2009 87.0706C58.278 87.0933 59.0635 86.3467 59.1308 85.2609V80.1484H59.8938L59.8714 85.2609Z" fill="white"/>
<path d="M65.4365 32.304C64.6062 33.141 63.6188 34.0911 62.7885 34.9281C62.205 34.3626 61.5991 33.7744 61.0156 33.1637C61.8908 32.3267 62.8782 31.3992 63.731 30.6074C64.2022 31.0825 64.8081 31.6933 65.4365 32.304Z" fill="white"/>
<path d="M52.5107 45.3333C51.6804 46.1703 50.693 47.1204 49.8627 47.9574C49.2792 47.3919 48.6733 46.8037 48.0898 46.193C48.965 45.356 49.9524 44.4285 50.8052 43.6367C51.254 44.1118 51.8824 44.7226 52.5107 45.3333Z" fill="white"/>
<path d="M60.9258 45.3791C61.5766 44.723 62.1376 44.1349 62.6986 43.5693C63.5738 44.5194 64.5163 45.4922 65.2793 46.3292C64.8081 46.7816 64.1797 47.3924 63.5514 48.0258C62.7884 47.2567 61.8459 46.3065 60.9258 45.3791Z" fill="white"/>
<path d="M48.1123 32.236C48.6509 31.7157 49.2568 31.1275 49.9076 30.4941C50.6481 31.2859 51.5682 32.2812 52.4434 33.254C51.9048 33.7516 51.2989 34.3172 50.693 34.8827C49.8851 34.0457 48.9202 33.073 48.1123 32.236Z" fill="white"/>
<path d="M75.0186 44.7682C78.0179 44.7682 80.4493 42.3172 80.4493 39.2938C80.4493 36.2703 78.0179 33.8193 75.0186 33.8193C72.0193 33.8193 69.5879 36.2703 69.5879 39.2938C69.5879 42.3172 72.0193 44.7682 75.0186 44.7682Z" fill="white"/>
<path d="M56.7071 26.2867C59.7064 26.2867 62.1378 23.8357 62.1378 20.8123C62.1378 17.7889 59.7064 15.3379 56.7071 15.3379C53.7078 15.3379 51.2764 17.7889 51.2764 20.8123C51.2764 23.8357 53.7078 26.2867 56.7071 26.2867Z" fill="white"/>
</svg>
