<svg width="24" height="24" viewBox="0 0 24 24" fill="none" xmlns="http://www.w3.org/2000/svg">
<path d="M13.1994 0.331055C14.5119 0.334555 15.1781 0.341555 15.7533 0.357888L15.9796 0.366055C16.2409 0.375388 16.4988 0.387055 16.8103 0.401055C18.0516 0.459388 18.8986 0.655388 19.6418 0.943555C20.4118 1.23989 21.0604 1.64122 21.7091 2.28872C22.3026 2.87174 22.7616 3.57727 23.0543 4.35605C23.3424 5.09922 23.5384 5.94622 23.5968 7.18872C23.6108 7.49905 23.6224 7.75689 23.6318 8.01939L23.6388 8.24572C23.6563 8.81972 23.6633 9.48589 23.6656 10.7984L23.6668 11.6687V13.1971C23.6696 14.048 23.6607 14.899 23.6399 15.7497L23.6329 15.9761C23.6236 16.2386 23.6119 16.4964 23.5979 16.8067C23.5396 18.0492 23.3413 18.8951 23.0543 19.6394C22.7616 20.4182 22.3026 21.1237 21.7091 21.7067C21.1261 22.3002 20.4205 22.7593 19.6418 23.0519C18.8986 23.3401 18.0516 23.5361 16.8103 23.5944L15.9796 23.6294L15.7533 23.6364C15.1781 23.6527 14.5119 23.6609 13.1994 23.6632L12.3291 23.6644H10.8019C9.95056 23.6674 9.0992 23.6584 8.24809 23.6376L8.02176 23.6306C7.74481 23.6201 7.46791 23.608 7.19109 23.5944C5.94976 23.5361 5.10276 23.3401 4.35843 23.0519C3.58006 22.7591 2.87494 22.3001 2.29226 21.7067C1.69836 21.1238 1.23889 20.4183 0.945927 19.6394C0.657761 18.8962 0.461761 18.0492 0.403427 16.8067L0.368427 15.9761L0.362594 15.7497C0.341088 14.899 0.331364 14.048 0.333427 13.1971V10.7984C0.330198 9.94742 0.338755 9.09645 0.359094 8.24572L0.367261 8.01939C0.376594 7.75689 0.388261 7.49905 0.402261 7.18872C0.460594 5.94622 0.656594 5.10039 0.944761 4.35605C1.2384 3.57695 1.69869 2.8714 2.29343 2.28872C2.87577 1.69553 3.58048 1.23647 4.35843 0.943555C5.10276 0.655388 5.94859 0.459388 7.19109 0.401055C7.50143 0.387055 7.76043 0.375388 8.02176 0.366055L8.24809 0.359055C9.09882 0.338326 9.94979 0.329381 10.8008 0.332221L13.1994 0.331055ZM12.0001 6.16439C10.453 6.16439 8.96927 6.77897 7.8753 7.87293C6.78134 8.96689 6.16676 10.4506 6.16676 11.9977C6.16676 13.5448 6.78134 15.0285 7.8753 16.1225C8.96927 17.2165 10.453 17.8311 12.0001 17.8311C13.5472 17.8311 15.0309 17.2165 16.1249 16.1225C17.2188 15.0285 17.8334 13.5448 17.8334 11.9977C17.8334 10.4506 17.2188 8.96689 16.1249 7.87293C15.0309 6.77897 13.5472 6.16439 12.0001 6.16439ZM12.0001 8.49772C12.4597 8.49764 12.9149 8.5881 13.3395 8.76392C13.7642 8.93974 14.1501 9.19748 14.4751 9.52244C14.8002 9.84739 15.0581 10.2332 15.234 10.6578C15.41 11.0824 15.5006 11.5375 15.5007 11.9971C15.5008 12.4568 15.4103 12.9119 15.2345 13.3366C15.0587 13.7612 14.8009 14.1471 14.476 14.4722C14.151 14.7972 13.7652 15.0551 13.3406 15.2311C12.916 15.407 12.4609 15.4976 12.0013 15.4977C11.073 15.4977 10.1828 15.129 9.52639 14.4726C8.87001 13.8162 8.50126 12.926 8.50126 11.9977C8.50126 11.0695 8.87001 10.1792 9.52639 9.52285C10.1828 8.86647 11.073 8.49772 12.0013 8.49772M18.1263 4.41439C17.7395 4.41439 17.3686 4.56803 17.0951 4.84152C16.8216 5.11501 16.6679 5.48595 16.6679 5.87272C16.6679 6.2595 16.8216 6.63043 17.0951 6.90392C17.3686 7.17741 17.7395 7.33105 18.1263 7.33105C18.513 7.33105 18.884 7.17741 19.1575 6.90392C19.4309 6.63043 19.5846 6.2595 19.5846 5.87272C19.5846 5.48595 19.4309 5.11501 19.1575 4.84152C18.884 4.56803 18.513 4.41439 18.1263 4.41439Z" fill="#F5F5F5"/>
</svg>
