<svg width="24" height="24" viewBox="0 0 24 24" fill="none" xmlns="http://www.w3.org/2000/svg">
<path fill-rule="evenodd" clip-rule="evenodd" d="M11.972 2.00033C11.7113 2.00661 11.4635 2.11486 11.2818 2.30183C11.1001 2.4888 10.9989 2.73959 11 3.00033V14.5353C10.2375 14.0951 9.35098 13.9187 8.47801 14.0336C7.60504 14.1485 6.79438 14.5483 6.17174 15.1708C5.5491 15.7934 5.14927 16.604 5.03427 17.477C4.91927 18.3499 5.09552 19.2365 5.53568 19.999C5.97584 20.7616 6.65533 21.3577 7.46875 21.6947C8.28218 22.0318 9.1841 22.0911 10.0346 21.8633C10.8852 21.6356 11.6368 21.1335 12.1729 20.4351C12.7091 19.7367 12.9998 18.8808 13 18.0003V8.18033L17.836 8.98633C17.9792 9.01014 18.1259 9.00248 18.2658 8.9639C18.4057 8.92532 18.5356 8.85673 18.6464 8.76291C18.7571 8.66908 18.8461 8.55227 18.9072 8.42058C18.9683 8.28889 18.9999 8.14549 19 8.00033V4.00033C18.9999 3.76362 18.9158 3.53463 18.7627 3.35408C18.6097 3.17354 18.3975 3.05315 18.164 3.01433L12.183 2.01733C12.1135 2.00421 12.0427 1.99851 11.972 2.00033Z" fill="#1C1C1C"/>
</svg>
