<svg width="20" height="23" viewBox="0 0 20 23" fill="none" xmlns="http://www.w3.org/2000/svg">
<path d="M9.00045 0.5C13.6004 0.5 17.4004 3.9 17.9004 8.4L19.5004 10.5C20.0004 11.3 20.1004 12.3 19.7004 13.1C19.3004 13.8 18.7004 14.3 18.0004 14.4V15.5C18.0004 17.3 16.7004 18.9 15.0004 19.4V20.5C15.0004 21.6046 14.105 22.5 13.0004 22.5H6.00045C4.89588 22.5 4.00045 21.6046 4.00045 20.5V17C1.50045 15.3 0.000448227 12.6 0.000448227 9.5C0.000448227 4.5 4.00045 0.5 9.00045 0.5ZM6.00045 15.8V20.5H13.0004V17.5H14.0004C15.1004 17.5 16.0004 16.6 16.0004 15.5V12.5H17.5004C17.9004 12.5 18.2004 12 17.9004 11.7L16.0004 9.2C15.8004 5.5 12.8004 2.5 9.00045 2.5C5.10045 2.5 2.00045 5.6 2.00045 9.5C2.00045 12.3 3.60045 14.7 6.00045 15.8Z" fill="black"/>
</svg>
