<svg width="37" height="50" viewBox="0 0 37 50" fill="none" xmlns="http://www.w3.org/2000/svg">
<path d="M13.0927 6.59375C13.0927 5.42561 13.4391 4.28369 14.0881 3.31242C14.7371 2.34114 15.6595 1.58412 16.7388 1.13709C17.818 0.690059 19.0055 0.573096 20.1512 0.80099C21.2969 1.02888 22.3493 1.5914 23.1753 2.4174C24.0014 3.24341 24.5639 4.2958 24.7918 5.4415C25.0197 6.5872 24.9027 7.77475 24.4557 8.85398C24.0086 9.9332 23.2516 10.8556 22.2803 11.5046C21.3091 12.1536 20.1671 12.5 18.999 12.5C17.4326 12.5 15.9303 11.8777 14.8226 10.7701C13.715 9.66247 13.0927 8.16019 13.0927 6.59375ZM36.0048 27.2614L27.8942 17.8747C27.34 17.2462 26.6583 16.7429 25.8946 16.3981C25.1309 16.0533 24.3025 15.875 23.4645 15.875H14.5335C13.6955 15.875 12.8671 16.0533 12.1034 16.3981C11.3396 16.7429 10.658 17.2462 10.1038 17.8747L1.94569 27.309C1.3259 27.9431 0.980584 28.7957 0.984391 29.6824C0.988197 30.5692 1.34082 31.4188 1.96603 32.0476C2.59124 32.6764 3.4388 33.0339 4.32548 33.0428C5.21216 33.0517 6.06673 32.7113 6.70444 32.0951L10.7724 29.1008L6.61696 44.8958C6.25543 45.7074 6.22853 46.6288 6.54208 47.4602C6.85564 48.2915 7.48436 48.9656 8.29183 49.3363C9.0993 49.707 10.0204 49.7443 10.8552 49.4402C11.69 49.1361 12.3712 48.515 12.751 47.7118L18.999 36.9688L25.2385 47.7266C25.6183 48.5298 26.2996 49.1508 27.1344 49.455C27.9692 49.7591 28.8903 49.7218 29.6977 49.3511C30.5052 48.9804 31.1339 48.3062 31.4475 47.4749C31.761 46.6436 31.7341 45.7222 31.3726 44.9105L27.2256 29.1008L31.2544 32.0476C31.8922 32.6637 32.7467 33.0041 33.6334 32.9952C34.5201 32.9863 35.3676 32.6288 35.9929 32C36.6181 31.3712 36.9707 30.5216 36.9745 29.6349C36.9783 28.7481 36.633 27.8955 36.0132 27.2614H36.0048Z" fill="#40A45C"/>
</svg>
