<?xml version="1.0" encoding="UTF-8" standalone="no"?>
<!DOCTYPE svg PUBLIC "-//W3C//DTD SVG 1.1//EN" "http://www.w3.org/Graphics/SVG/1.1/DTD/svg11.dtd">
<svg width="100%" height="100%" viewBox="0 0 672 619" version="1.1" xmlns="http://www.w3.org/2000/svg" xmlns:xlink="http://www.w3.org/1999/xlink" xml:space="preserve" xmlns:serif="http://www.serif.com/" style="fill-rule:evenodd;clip-rule:evenodd;stroke-linejoin:round;stroke-miterlimit:2;">
    <g transform="matrix(-0.0576774,1.33861,-1.33861,-0.0576774,642.622,-287.823)">
        <clipPath id="_clip1">
            <path d="M573.466,618.929L1146.93,45.465L573.466,-527.999L0.002,45.465L573.466,618.929Z"/>
        </clipPath>
        <g clip-path="url(#_clip1)">
            <g opacity="0.3">
                <path d="M439.956,79.515C436.372,79.067 432.564,77.947 429.204,76.379C432.116,66.746 439.06,58.458 449.141,54.202C455.413,51.514 461.685,50.618 468.182,51.29C471.766,51.738 475.574,52.858 478.934,54.426C476.022,64.058 469.078,72.347 458.997,76.603C452.725,79.291 446.229,79.963 439.956,79.515Z" style="fill:rgb(144,187,167);fill-rule:nonzero;"/>
                <path d="M464.821,192.191C463.029,187.263 462.133,182.334 461.46,177.182C460.34,164.414 463.029,150.973 469.973,139.101C470.869,137.757 471.765,135.964 472.661,134.62C477.141,127.9 482.965,122.524 489.238,118.044C496.63,112.891 504.918,109.531 513.431,107.739C514.999,112.443 516.119,117.148 516.567,122.076C517.687,133.5 516.119,145.373 510.967,156.349C510.071,158.141 509.398,159.709 508.278,161.277C501.334,173.15 491.03,182.11 479.829,187.487C475.125,189.503 469.973,191.071 464.821,192.191Z" style="fill:rgb(144,187,167);fill-rule:nonzero;"/>
                <path d="M427.412,179.871C432.34,180.319 437.492,181.439 442.196,183.007C440.404,191.071 437.492,198.912 432.788,205.856C428.084,213.248 421.588,219.745 413.747,224.897C412.851,225.345 411.955,226.241 411.059,226.689C398.739,233.633 385.298,236.321 372.305,234.977C367.377,234.529 362.225,233.409 357.521,231.841C360.881,214.144 371.633,198.016 388.658,188.159C400.979,181.215 414.419,178.527 427.412,179.871Z" style="fill:rgb(144,187,167);fill-rule:nonzero;"/>
                <path d="M424.723,240.353C431.444,228.705 441.3,219.744 452.948,214.368C457.877,212.128 463.029,210.112 468.405,209.216C469.973,213.92 471.093,218.624 471.541,224C472.885,236.993 470.197,250.434 463.253,262.754C453.62,279.555 437.492,290.307 419.571,293.891C418.003,289.187 416.883,284.483 416.435,279.107C415.315,267.682 417.331,255.81 422.483,244.833C423.155,243.265 423.827,241.697 424.723,240.353Z" style="fill:rgb(144,187,167);fill-rule:nonzero;"/>
                <path d="M397.395,252.449C398.515,258.498 398.067,264.77 396.051,270.818C394.706,274.402 392.69,278.211 390.226,281.571C385.97,287.171 380.146,291.203 373.65,293.219C370.289,294.339 366.929,295.011 363.569,295.235C362.001,286.947 363.345,278.435 367.601,271.042C368.497,269.25 369.617,267.682 370.737,266.114C373.65,262.306 377.458,259.394 381.49,257.154C386.418,254.466 392.018,252.897 397.395,252.449Z" style="fill:rgb(144,187,167);fill-rule:nonzero;"/>
                <path d="M475.798,307.556C472.886,317.189 465.941,325.477 455.861,329.733C445.78,333.989 435.028,333.541 425.844,329.285C428.756,319.653 435.7,311.364 445.78,307.108C455.861,302.852 466.837,303.076 475.798,307.556Z" style="fill:rgb(144,187,167);fill-rule:nonzero;"/>
                <path d="M423.604,87.803L423.604,95.867C422.26,111.1 415.539,125.884 403.667,137.309C392.69,147.837 379.026,153.438 364.913,154.558C360.881,155.006 356.849,155.006 353.041,154.334C352.369,136.189 359.313,118.044 373.426,104.828C387.09,91.611 405.683,86.011 423.604,87.803Z" style="fill:rgb(144,187,167);fill-rule:nonzero;"/>
                <path d="M354.608,201.151C347.44,209.216 337.36,213.024 327.279,212.8C326.159,202.719 329.295,192.415 336.24,184.575C343.408,176.51 353.488,172.702 363.793,172.702C364.913,182.783 362.001,193.311 354.608,201.151Z" style="fill:rgb(144,187,167);fill-rule:nonzero;"/>
                <path d="M685.246,309.124C687.038,301.508 690.174,294.34 694.43,287.844C697.118,289.188 699.806,290.532 702.046,292.324C714.591,300.836 724.223,313.605 728.479,329.061C730.943,338.246 731.391,347.654 729.823,356.39C728.255,365.575 724.895,374.311 719.967,381.927C716.607,380.359 713.247,378.343 710.111,376.103C698.686,367.815 689.726,355.718 685.47,340.71C682.781,329.957 682.781,319.205 685.246,309.124Z" style="fill:rgb(144,187,167);fill-rule:nonzero;"/>
                <path d="M313.391,109.755C321.455,107.963 329.967,108.859 336.912,112.22C333.999,121.852 327.055,130.14 316.975,134.396C307.342,138.653 297.038,138.205 288.302,134.396C288.077,134.172 287.405,133.948 287.181,133.724C290.094,124.092 297.038,115.804 307.118,111.548C309.134,110.876 311.374,110.427 313.391,109.755Z" style="fill:rgb(144,187,167);fill-rule:nonzero;"/>
                <path d="M502.231,258.274C511.863,241.473 527.992,230.72 545.912,227.136C547.48,231.84 548.6,236.545 549.048,241.921C550.393,254.913 547.704,268.354 540.76,280.674C531.128,297.475 514.999,308.228 497.078,311.812C495.51,307.108 494.39,301.955 493.942,297.027C492.598,284.035 495.286,270.594 502.231,258.274Z" style="fill:rgb(144,187,167);fill-rule:nonzero;"/>
                <path d="M649.181,345.189C650.525,338.021 654.109,331.749 659.037,326.82C660.605,327.94 662.173,329.509 663.517,330.853C669.117,336.901 672.702,344.517 673.15,353.029C674.046,363.782 669.789,373.862 662.845,380.807C655.005,374.758 649.629,365.35 648.733,354.598C648.285,351.461 648.733,348.325 649.181,345.189Z" style="fill:rgb(144,187,167);fill-rule:nonzero;"/>
                <path d="M543,325.029C547.48,309.348 557.785,296.355 570.777,288.291C572.345,289.859 573.465,291.427 574.585,293.443C579.065,300.164 582.426,307.556 583.994,315.396C585.786,323.012 586.234,331.525 584.89,340.037C581.754,359.302 570.553,374.983 555.096,384.615C548.6,376.775 543.896,367.59 541.656,357.734C539.864,350.118 539.416,341.605 540.76,333.093C541.656,330.405 542.104,327.717 543,325.029Z" style="fill:rgb(144,187,167);fill-rule:nonzero;"/>
                <path d="M620.507,359.974C622.747,362.662 624.315,365.574 625.659,368.71C626.107,370.054 626.555,371.398 627.227,372.966C630.14,383.495 628.123,394.023 622.523,402.311C615.803,399.175 610.427,394.247 606.619,387.751C605.05,385.287 604.154,382.599 603.258,379.462C603.034,378.79 602.81,378.118 602.586,377.446C600.346,367.59 602.586,357.734 607.739,349.893C612.667,352.581 616.923,355.941 620.507,359.974Z" style="fill:rgb(144,187,167);fill-rule:nonzero;"/>
                <path d="M517.239,328.837C519.927,334.661 521.047,341.157 520.151,347.878C519.703,351.462 518.807,355.046 517.239,358.854C512.759,368.71 504.471,375.655 494.838,378.567C494.166,377.447 493.718,376.103 493.27,374.759C490.806,367.366 490.806,358.854 493.494,351.238C493.718,350.566 494.166,349.67 494.39,348.998C498.647,339.813 506.263,333.093 514.999,329.733C516.119,329.061 516.791,328.837 517.239,328.837Z" style="fill:rgb(144,187,167);fill-rule:nonzero;"/>
                <path d="M606.619,293.219C606.395,290.755 606.395,288.515 606.171,286.051C606.171,273.954 609.755,262.306 615.579,252.449C618.94,246.849 623.196,241.697 628.348,237.441C628.796,237.889 629.02,238.113 629.468,238.561C635.068,243.713 639.772,249.761 643.133,256.257C647.613,265.218 650.525,275.298 650.301,286.275C650.301,305.539 641.564,323.236 628.124,334.885C616.475,324.132 608.411,309.348 606.619,293.219Z" style="fill:rgb(144,187,167);fill-rule:nonzero;"/>
                <path d="M273.293,-26.217C276.206,-25.993 278.894,-25.097 281.806,-23.977C288.302,-21.513 293.902,-16.809 297.934,-11.433C298.158,-11.209 298.382,-10.985 298.606,-10.313C296.814,-8.521 294.798,-7.401 292.558,-6.057C286.062,-2.248 277.998,-0.456 270.157,-1.576C267.245,-1.8 264.557,-2.696 261.645,-3.816C254.701,-6.729 248.652,-11.433 244.844,-17.481C252.237,-23.977 262.541,-27.561 273.293,-26.217Z" style="fill:rgb(144,187,167);fill-rule:nonzero;"/>
                <path d="M749.537,118.492C752.897,125.885 756.257,132.829 759.393,139.997C769.026,161.726 776.418,183.007 774.178,205.856C773.73,211.68 772.386,217.504 770.594,223.329C769.026,228.033 767.01,232.737 764.77,237.665C764.546,235.201 764.098,232.961 763.65,230.273C762.978,226.465 762.082,222.88 760.738,219.296C755.137,202.048 745.953,183.455 735.2,164.19C731.616,157.47 727.584,150.75 724,144.029C721.536,139.773 719.072,135.517 716.608,130.813C714.368,138.877 712.352,147.613 710.783,157.246C708.767,168.222 707.647,180.095 707.423,191.967C707.199,204.736 708.095,218.176 711.007,231.393C706.303,221.76 702.943,210.784 700.703,198.688C698.911,189.727 697.791,180.543 697.119,170.91C696.447,163.518 696.223,156.126 696.223,148.509C695.999,130.813 696.895,112.444 698.239,95.867L697.343,93.627C685.246,67.642 676.958,41.433 678.75,16.344C679.198,7.832 681.214,-0.457 684.574,-8.745C664.862,10.072 652.541,30.009 645.149,49.945C632.828,83.323 634.844,117.148 642.237,148.733C645.373,163.07 649.853,176.959 654.781,189.951C657.021,195.775 659.037,201.376 661.053,206.976C664.19,215.04 667.102,222.432 669.79,229.601C679.646,255.138 685.694,274.179 676.51,283.363C675.166,266.786 668.222,252.674 659.709,239.681C655.677,233.409 651.197,227.137 646.717,221.312C643.357,216.608 639.997,212.352 636.86,207.872C633.5,202.72 630.14,197.567 627.452,192.191C606.619,233.633 596.315,251.554 557.113,271.042C594.747,233.409 609.755,208.992 612.443,178.527C612.891,171.358 612.891,163.742 611.995,155.678C610.203,137.757 603.931,116.7 601.467,93.627C600.571,84.667 600.347,75.034 601.243,65.626C601.243,63.834 601.691,62.042 601.691,60.25C595.195,66.746 590.043,73.69 585.786,81.083C576.826,95.867 571.226,112.22 566.074,129.021C552.633,171.134 540.76,215.712 483.862,242.145C507.383,215.04 519.032,190.847 526.2,168.894C530.68,155.454 533.368,142.461 536.504,130.365C539.864,116.252 543.449,102.812 550.617,90.267L548.601,90.043C537.624,88.923 527.32,88.475 518.36,88.923C462.133,91.387 440.404,122.972 405.459,169.566C473.558,33.369 506.711,100.123 585.338,21.496C547.705,26.424 517.464,26.2 490.134,29.337C448.245,33.593 412.851,44.793 366.929,90.715C408.371,28.665 456.085,19.032 508.727,10.296C549.497,3.575 592.955,-2.697 639.101,-32.266C647.837,-37.866 656.349,-44.139 665.31,-51.307C662.846,-51.083 660.157,-51.083 657.693,-50.859C627.004,-49.291 600.795,-51.307 575.034,-56.011C570.778,-56.683 566.746,-57.579 562.489,-58.251C521.496,-45.483 487.894,-16.361 437.94,-14.793C434.356,-14.793 430.548,-14.569 426.516,-15.017C431.668,-16.137 436.82,-17.257 441.748,-18.601C478.038,-29.354 504.471,-50.859 534.712,-64.523C522.84,-67.435 510.519,-70.796 497.303,-74.156C488.118,-76.62 478.71,-79.308 468.854,-81.548C451.381,-86.028 432.788,-90.732 411.955,-95.437C406.131,-96.781 399.859,-98.125 393.81,-99.245C400.755,-105.741 411.283,-107.757 423.828,-107.309C441.076,-106.637 462.805,-101.485 484.31,-97.005C494.839,-94.989 505.143,-93.197 515.223,-92.076C528.888,-90.508 541.881,-90.508 553.081,-93.197C548.601,-95.437 540.536,-100.365 530.456,-107.309C523.96,-111.565 517.016,-116.717 509.399,-122.094C497.079,-131.278 483.19,-142.031 469.974,-153.455C464.597,-157.935 459.445,-162.639 454.293,-167.344C449.141,-172.048 444.437,-176.752 439.732,-181.456C420.02,-201.169 404.787,-221.33 400.755,-237.458C400.531,-238.13 400.531,-239.026 400.083,-239.923L401.651,-238.354C417.779,-222.226 434.356,-206.993 451.381,-193.105C456.757,-188.624 462.133,-184.592 467.285,-180.336C472.886,-176.08 478.934,-171.824 484.31,-167.792C498.871,-157.711 513.655,-148.751 528.44,-141.134C536.728,-136.878 545.017,-133.07 553.081,-129.934C580.41,-119.182 607.515,-113.581 634.62,-115.149C657.917,-116.493 680.542,-122.99 702.943,-135.534C717.728,-144.047 784.803,-194.466 789.283,-219.107C871.717,-378.218 896.183,-295.919 857.958,-129.71C838.245,-126.574 799.491,-100.813 778.658,-83.116C772.61,-77.964 768.13,-73.932 765.89,-70.796C765.218,-70.124 764.994,-69.452 764.322,-68.78C724.672,-15.689 720.416,26.2 728.704,62.714C731.84,76.603 736.993,89.819 742.593,102.588C744.609,107.74 747.073,113.34 749.537,118.492Z" style="fill:rgb(144,187,167);fill-rule:nonzero;"/>
                <path d="M344.08,42.778C353.04,45.018 361.328,48.826 368.273,54.426C369.169,55.322 370.289,55.994 371.409,57.114C364.017,68.091 353.488,76.827 340.944,81.755C336.015,83.547 331.087,84.891 325.935,85.563C317.647,86.683 309.582,86.235 301.966,84.443C291.886,81.979 282.477,77.051 274.637,70.107C284.493,54.874 300.622,44.122 319.887,41.882C328.623,40.761 336.687,41.209 344.08,42.778Z" style="fill:rgb(144,187,167);fill-rule:nonzero;"/>
                <path d="M271.501,16.792C280.91,12.759 290.99,12.983 299.95,16.568C300.622,16.792 300.846,17.016 301.518,17.24C298.606,26.872 291.662,35.16 281.582,39.416C279.341,40.313 277.101,41.209 274.861,41.657C267.021,43.225 258.957,42.329 252.012,38.968C252.684,36.504 253.804,34.04 255.373,31.576C258.509,26.2 262.989,21.72 268.589,18.36C269.261,17.688 270.157,17.24 271.501,16.792Z" style="fill:rgb(144,187,167);fill-rule:nonzero;"/>
                <path d="M383.058,-14.121C388.434,-13.673 393.362,-12.777 398.515,-11.209C407.027,-8.521 414.867,-3.816 421.364,1.784C424.5,4.472 427.412,7.832 429.876,11.192C420.243,20.825 407.475,27.321 393.81,29.337C389.106,30.009 384.626,30.009 379.922,29.785C373.426,29.113 367.153,27.769 361.329,25.529C349.905,21.273 340.048,13.656 332.656,4.024C345.424,-8.297 363.345,-15.465 383.058,-14.121Z" style="fill:rgb(144,187,167);fill-rule:nonzero;"/>
            </g>
        </g>
    </g>
</svg>
