<svg width="672" height="619" viewBox="0 0 672 619" fill="none" xmlns="http://www.w3.org/2000/svg">
<g opacity="0.3" clip-path="url(#clip0_1950_8805)">
<path d="M439.956 79.5149C436.372 79.0669 432.564 77.9468 429.204 76.3787C432.116 66.7463 439.06 58.458 449.141 54.2018C455.413 51.5137 461.685 50.6177 468.182 51.2897C471.766 51.7378 475.574 52.8578 478.934 54.4258C476.022 64.0582 469.078 72.3466 458.997 76.6028C452.725 79.2909 446.229 79.9629 439.956 79.5149Z" fill="#90BBA7"/>
<path d="M464.821 192.191C463.029 187.263 462.133 182.334 461.46 177.182C460.34 164.414 463.029 150.973 469.973 139.101C470.869 137.757 471.765 135.964 472.661 134.62C477.141 127.9 482.965 122.524 489.238 118.044C496.63 112.891 504.918 109.531 513.431 107.739C514.999 112.443 516.119 117.148 516.567 122.076C517.687 133.5 516.119 145.373 510.967 156.349C510.071 158.141 509.398 159.709 508.278 161.277C501.334 173.15 491.03 182.11 479.829 187.487C475.125 189.503 469.973 191.071 464.821 192.191Z" fill="#90BBA7"/>
<path d="M427.412 179.871C432.34 180.319 437.492 181.439 442.196 183.007C440.404 191.071 437.492 198.912 432.788 205.856C428.084 213.248 421.588 219.745 413.747 224.897C412.851 225.345 411.955 226.241 411.059 226.689C398.739 233.633 385.298 236.321 372.305 234.977C367.377 234.529 362.225 233.409 357.521 231.841C360.881 214.144 371.633 198.016 388.658 188.159C400.979 181.215 414.419 178.527 427.412 179.871Z" fill="#90BBA7"/>
<path d="M424.723 240.353C431.444 228.705 441.3 219.744 452.948 214.368C457.877 212.128 463.029 210.112 468.405 209.216C469.973 213.92 471.093 218.624 471.541 224C472.885 236.993 470.197 250.434 463.253 262.754C453.62 279.555 437.492 290.307 419.571 293.891C418.003 289.187 416.883 284.483 416.435 279.107C415.315 267.682 417.331 255.81 422.483 244.833C423.155 243.265 423.827 241.697 424.723 240.353Z" fill="#90BBA7"/>
<path d="M397.395 252.449C398.515 258.498 398.067 264.77 396.051 270.818C394.706 274.402 392.69 278.211 390.226 281.571C385.97 287.171 380.146 291.203 373.65 293.219C370.289 294.339 366.929 295.011 363.569 295.235C362.001 286.947 363.345 278.435 367.601 271.042C368.497 269.25 369.617 267.682 370.737 266.114C373.65 262.306 377.458 259.394 381.49 257.154C386.418 254.466 392.018 252.897 397.395 252.449Z" fill="#90BBA7"/>
<path d="M475.798 307.556C472.886 317.189 465.941 325.477 455.861 329.733C445.78 333.989 435.028 333.541 425.844 329.285C428.756 319.653 435.7 311.364 445.78 307.108C455.861 302.852 466.837 303.076 475.798 307.556Z" fill="#90BBA7"/>
<path d="M423.604 87.8029C423.604 90.491 423.604 93.1791 423.604 95.8672C422.26 111.1 415.539 125.884 403.667 137.309C392.69 147.837 379.026 153.438 364.913 154.558C360.881 155.006 356.849 155.006 353.041 154.334C352.369 136.189 359.313 118.044 373.426 104.828C387.09 91.6111 405.683 86.0108 423.604 87.8029Z" fill="#90BBA7"/>
<path d="M354.608 201.151C347.44 209.216 337.36 213.024 327.279 212.8C326.159 202.719 329.295 192.415 336.24 184.575C343.408 176.51 353.488 172.702 363.793 172.702C364.913 182.783 362.001 193.311 354.608 201.151Z" fill="#90BBA7"/>
<path d="M685.246 309.124C687.038 301.508 690.174 294.34 694.43 287.844C697.118 289.188 699.806 290.532 702.046 292.324C714.591 300.836 724.223 313.605 728.479 329.061C730.943 338.246 731.391 347.654 729.823 356.39C728.255 365.575 724.895 374.311 719.967 381.927C716.607 380.359 713.247 378.343 710.111 376.103C698.686 367.815 689.726 355.718 685.47 340.71C682.781 329.957 682.781 319.205 685.246 309.124Z" fill="#90BBA7"/>
<path d="M313.391 109.755C321.455 107.963 329.967 108.859 336.912 112.22C333.999 121.852 327.055 130.14 316.975 134.396C307.342 138.653 297.038 138.205 288.302 134.396C288.077 134.172 287.405 133.948 287.181 133.724C290.094 124.092 297.038 115.804 307.118 111.548C309.134 110.876 311.374 110.427 313.391 109.755Z" fill="#90BBA7"/>
<path d="M502.231 258.274C511.863 241.473 527.992 230.72 545.912 227.136C547.48 231.84 548.6 236.545 549.048 241.921C550.393 254.913 547.704 268.354 540.76 280.674C531.128 297.475 514.999 308.228 497.078 311.812C495.51 307.108 494.39 301.955 493.942 297.027C492.598 284.035 495.286 270.594 502.231 258.274Z" fill="#90BBA7"/>
<path d="M649.181 345.189C650.525 338.021 654.109 331.749 659.037 326.82C660.605 327.94 662.173 329.509 663.517 330.853C669.117 336.901 672.702 344.517 673.15 353.029C674.046 363.782 669.789 373.862 662.845 380.807C655.005 374.758 649.629 365.35 648.733 354.598C648.285 351.461 648.733 348.325 649.181 345.189Z" fill="#90BBA7"/>
<path d="M543 325.029C547.48 309.348 557.785 296.355 570.777 288.291C572.345 289.859 573.465 291.427 574.585 293.443C579.065 300.164 582.426 307.556 583.994 315.396C585.786 323.012 586.234 331.525 584.89 340.037C581.754 359.302 570.553 374.983 555.096 384.615C548.6 376.775 543.896 367.59 541.656 357.734C539.864 350.118 539.416 341.605 540.76 333.093C541.656 330.405 542.104 327.717 543 325.029Z" fill="#90BBA7"/>
<path d="M620.507 359.974C622.747 362.662 624.315 365.574 625.659 368.71C626.107 370.054 626.555 371.398 627.227 372.966C630.14 383.495 628.123 394.023 622.523 402.311C615.803 399.175 610.427 394.247 606.619 387.751C605.05 385.287 604.154 382.599 603.258 379.462C603.034 378.79 602.81 378.118 602.586 377.446C600.346 367.59 602.586 357.734 607.739 349.893C612.667 352.581 616.923 355.941 620.507 359.974Z" fill="#90BBA7"/>
<path d="M517.239 328.837C519.927 334.661 521.047 341.157 520.151 347.878C519.703 351.462 518.807 355.046 517.239 358.854C512.759 368.71 504.471 375.655 494.838 378.567C494.166 377.447 493.718 376.103 493.27 374.759C490.806 367.366 490.806 358.854 493.494 351.238C493.718 350.566 494.166 349.67 494.39 348.998C498.647 339.813 506.263 333.093 514.999 329.733C516.119 329.061 516.791 328.837 517.239 328.837Z" fill="#90BBA7"/>
<path d="M606.619 293.219C606.395 290.755 606.395 288.515 606.171 286.051C606.171 273.954 609.755 262.306 615.579 252.449C618.94 246.849 623.196 241.697 628.348 237.441C628.796 237.889 629.02 238.113 629.468 238.561C635.068 243.713 639.772 249.761 643.133 256.257C647.613 265.218 650.525 275.298 650.301 286.275C650.301 305.539 641.564 323.236 628.124 334.885C616.475 324.132 608.411 309.348 606.619 293.219Z" fill="#90BBA7"/>
<path d="M273.293 -26.2173C276.206 -25.9933 278.894 -25.0973 281.806 -23.9772C288.302 -21.5131 293.902 -16.8089 297.934 -11.4327C298.158 -11.2087 298.382 -10.9847 298.606 -10.3127C296.814 -8.5206 294.798 -7.40057 292.558 -6.05651C286.062 -2.24835 277.998 -0.45628 270.157 -1.57633C267.245 -1.80033 264.557 -2.69636 261.645 -3.81641C254.701 -6.72853 248.652 -11.4327 244.844 -17.481C252.237 -23.9772 262.541 -27.5614 273.293 -26.2173Z" fill="#90BBA7"/>
<path d="M749.537 118.492C752.897 125.885 756.257 132.829 759.393 139.997C769.026 161.726 776.418 183.007 774.178 205.856C773.73 211.68 772.386 217.504 770.594 223.329C769.026 228.033 767.01 232.737 764.77 237.665C764.546 235.201 764.098 232.961 763.65 230.273C762.978 226.465 762.082 222.88 760.738 219.296C755.137 202.048 745.953 183.455 735.2 164.19C731.616 157.47 727.584 150.75 724 144.029C721.536 139.773 719.072 135.517 716.608 130.813C714.368 138.877 712.352 147.613 710.783 157.246C708.767 168.222 707.647 180.095 707.423 191.967C707.199 204.736 708.095 218.176 711.007 231.393C706.303 221.76 702.943 210.784 700.703 198.688C698.911 189.727 697.791 180.543 697.119 170.91C696.447 163.518 696.223 156.126 696.223 148.509C695.999 130.813 696.895 112.444 698.239 95.8673L697.343 93.6272C685.246 67.6421 676.958 41.433 678.75 16.344C679.198 7.83166 681.214 -0.456685 684.574 -8.74501C664.862 10.0718 652.541 30.0086 645.149 49.9454C632.828 83.3228 634.844 117.148 642.237 148.733C645.373 163.07 649.853 176.959 654.781 189.951C657.021 195.775 659.037 201.376 661.053 206.976C664.19 215.04 667.102 222.432 669.79 229.601C679.646 255.138 685.694 274.179 676.51 283.363C675.166 266.786 668.222 252.674 659.709 239.681C655.677 233.409 651.197 227.137 646.717 221.312C643.357 216.608 639.997 212.352 636.86 207.872C633.5 202.72 630.14 197.567 627.452 192.191C606.619 233.633 596.315 251.554 557.113 271.042C594.747 233.409 609.755 208.992 612.443 178.527C612.891 171.358 612.891 163.742 611.995 155.678C610.203 137.757 603.931 116.7 601.467 93.6272C600.571 84.6668 600.347 75.0344 601.243 65.6261C601.243 63.834 601.691 62.0419 601.691 60.2498C595.195 66.7461 590.043 73.6904 585.786 81.0827C576.826 95.8673 571.226 112.22 566.074 129.021C552.633 171.134 540.76 215.712 483.862 242.145C507.383 215.04 519.032 190.847 526.2 168.894C530.68 155.454 533.368 142.461 536.504 130.365C539.864 116.252 543.449 102.812 550.617 90.267L548.601 90.043C537.624 88.923 527.32 88.475 518.36 88.923C462.133 91.3871 440.404 122.972 405.459 169.566C473.558 33.3687 506.711 100.123 585.338 21.4962C547.705 26.4244 517.464 26.2004 490.134 29.3366C448.245 33.5927 412.851 44.7932 366.929 90.7151C408.371 28.6645 456.085 19.0321 508.727 10.2957C549.497 3.57546 592.955 -2.69678 639.101 -32.266C647.837 -37.8662 656.349 -44.1385 665.31 -51.3068C662.846 -51.0828 660.157 -51.0828 657.693 -50.8588C627.004 -49.2907 600.795 -51.3068 575.034 -56.011C570.778 -56.683 566.746 -57.579 562.489 -58.251C521.496 -45.4825 487.894 -16.3613 437.94 -14.7933C434.356 -14.7933 430.548 -14.5693 426.516 -15.0173C431.668 -16.1373 436.82 -17.2574 441.748 -18.6014C478.038 -29.3539 504.471 -50.8587 534.712 -64.5233C522.84 -67.4354 510.519 -70.7956 497.303 -74.1557C488.118 -76.6198 478.71 -79.3079 468.854 -81.548C451.381 -86.0282 432.788 -90.7324 411.955 -95.4366C406.131 -96.7806 399.859 -98.1247 393.81 -99.2447C400.755 -105.741 411.283 -107.757 423.828 -107.309C441.076 -106.637 462.805 -101.485 484.31 -97.0046C494.839 -94.9885 505.143 -93.1965 515.223 -92.0764C528.888 -90.5084 541.881 -90.5084 553.081 -93.1965C548.601 -95.4366 540.536 -100.365 530.456 -107.309C523.96 -111.565 517.016 -116.717 509.399 -122.094C497.079 -131.278 483.19 -142.031 469.974 -153.455C464.597 -157.935 459.445 -162.639 454.293 -167.344C449.141 -172.048 444.437 -176.752 439.732 -181.456C420.02 -201.169 404.787 -221.33 400.755 -237.458C400.531 -238.13 400.531 -239.026 400.083 -239.923L401.651 -238.354C417.779 -222.226 434.356 -206.993 451.381 -193.105C456.757 -188.624 462.133 -184.592 467.285 -180.336C472.886 -176.08 478.934 -171.824 484.31 -167.792C498.871 -157.711 513.655 -148.751 528.44 -141.134C536.728 -136.878 545.017 -133.07 553.081 -129.934C580.41 -119.182 607.515 -113.581 634.62 -115.149C657.917 -116.493 680.542 -122.99 702.943 -135.534C717.728 -144.047 767.234 -191.313 771.714 -215.954L857.958 -129.71C838.245 -126.574 799.491 -100.813 778.658 -83.1161C772.61 -77.9639 768.13 -73.9317 765.89 -70.7956C765.218 -70.1235 764.994 -69.4515 764.322 -68.7795C724.672 -15.6893 720.416 26.2004 728.704 62.7139C731.84 76.6025 736.993 89.819 742.593 102.588C744.609 107.74 747.073 113.34 749.537 118.492Z" fill="#90BBA7"/>
<path d="M344.08 42.7775C353.04 45.0176 361.328 48.8257 368.273 54.426C369.169 55.322 370.289 55.994 371.409 57.1141C364.017 68.0905 353.488 76.8269 340.944 81.7551C336.015 83.5472 331.087 84.8912 325.935 85.5632C317.647 86.6833 309.582 86.2353 301.966 84.4432C291.886 81.9791 282.477 77.0509 274.637 70.1066C284.493 54.874 300.622 44.1215 319.887 41.8815C328.623 40.7614 336.687 41.2094 344.08 42.7775Z" fill="#90BBA7"/>
<path d="M271.501 16.7915C280.91 12.7593 290.99 12.9833 299.95 16.5675C300.622 16.7915 300.846 17.0155 301.518 17.2395C298.606 26.8719 291.662 35.1603 281.582 39.4164C279.341 40.3125 277.101 41.2085 274.861 41.6565C267.021 43.2246 258.957 42.3286 252.012 38.9684C252.684 36.5043 253.804 34.0402 255.373 31.5761C258.509 26.1999 262.989 21.7197 268.589 18.3596C269.261 17.6875 270.157 17.2395 271.501 16.7915Z" fill="#90BBA7"/>
<path d="M383.058 -14.1209C388.434 -13.6729 393.362 -12.7768 398.515 -11.2088C407.027 -8.52066 414.867 -3.81647 421.364 1.78376C424.5 4.47188 427.412 7.83202 429.876 11.1922C420.243 20.8246 407.475 27.3208 393.81 29.3369C389.106 30.0089 384.626 30.0089 379.922 29.7849C373.426 29.1129 367.153 27.7688 361.329 25.5287C349.905 21.2726 340.048 13.6562 332.656 4.02385C345.424 -8.29666 363.345 -15.465 383.058 -14.1209Z" fill="#90BBA7"/>
</g>
<defs>
<clipPath id="clip0_1950_8805">
<rect width="811" height="811" fill="white" transform="matrix(0.707107 0.707107 0.707107 -0.707107 0.00195312 45.4648)"/>
</clipPath>
</defs>
</svg>
